<?xml version="1.0" encoding="UTF-8" standalone="no"?>
<!-- Created with Inkscape (http://www.inkscape.org/) -->

<svg
   xmlns:dc="http://purl.org/dc/elements/1.1/"
   xmlns:cc="http://creativecommons.org/ns#"
   xmlns:rdf="http://www.w3.org/1999/02/22-rdf-syntax-ns#"
   xmlns:svg="http://www.w3.org/2000/svg"
   xmlns="http://www.w3.org/2000/svg"
   xmlns:xlink="http://www.w3.org/1999/xlink"
   xmlns:sodipodi="http://sodipodi.sourceforge.net/DTD/sodipodi-0.dtd"
   xmlns:inkscape="http://www.inkscape.org/namespaces/inkscape"
   width="16"
   height="16"
   viewBox="0 0 16 16"
   id="svg4199"
   version="1.1"
   inkscape:version="0.91 r13725"
   sodipodi:docname="favicon.svg"
   inkscape:export-filename="/home/thomas/glauron/dragon.png"
   inkscape:export-xdpi="90"
   inkscape:export-ydpi="90">
  <defs
     id="defs4201">
    <linearGradient
       inkscape:collect="always"
       id="linearGradient9918">
      <stop
         style="stop-color:#fff80a;stop-opacity:1"
         offset="0"
         id="stop9920" />
      <stop
         style="stop-color:#ff0000;stop-opacity:1"
         offset="1"
         id="stop9922" />
    </linearGradient>
    <radialGradient
       inkscape:collect="always"
       xlink:href="#linearGradient9918"
       id="radialGradient9924"
       cx="539.42511"
       cy="1021.9075"
       fx="539.42511"
       fy="1021.9075"
       r="2.53157"
       gradientTransform="matrix(0.28800221,-0.41944651,0.41903532,0.28771992,-577.28677,974.22239)"
       gradientUnits="userSpaceOnUse" />
    <radialGradient
       inkscape:collect="always"
       xlink:href="#linearGradient10103"
       id="radialGradient10777"
       cx="600"
       cy="1102.3622"
       fx="600"
       fy="1102.3622"
       r="600"
       gradientTransform="matrix(0.0495026,0,0,0.03150165,-15.835967,1019.1701)"
       gradientUnits="userSpaceOnUse" />
    <linearGradient
       inkscape:collect="always"
       id="linearGradient10103">
      <stop
         style="stop-color:#ffe601;stop-opacity:1"
         offset="0"
         id="stop10105" />
      <stop
         id="stop10781"
         offset="0.16938774"
         style="stop-color:#ffd604;stop-opacity:1" />
      <stop
         id="stop10779"
         offset="0.37346938"
         style="stop-color:#ff7a03;stop-opacity:1" />
      <stop
         style="stop-color:#ff2d06;stop-opacity:1"
         offset="0.53265309"
         id="stop10783" />
      <stop
         style="stop-color:#380061;stop-opacity:1"
         offset="1"
         id="stop10107" />
    </linearGradient>
  </defs>
  <sodipodi:namedview
     id="base"
     pagecolor="#ffffff"
     bordercolor="#666666"
     borderopacity="1.0"
     inkscape:pageopacity="0.0"
     inkscape:pageshadow="2"
     inkscape:zoom="9.35"
     inkscape:cx="3.5287916"
     inkscape:cy="-14.976683"
     inkscape:document-units="px"
     inkscape:current-layer="layer1"
     showgrid="true"
     units="px"
     inkscape:snap-bbox="true"
     inkscape:bbox-nodes="true"
     inkscape:snap-global="false"
     inkscape:window-width="1920"
     inkscape:window-height="1181"
     inkscape:window-x="0"
     inkscape:window-y="19"
     inkscape:window-maximized="0"
     inkscape:snap-bbox-midpoints="true"
     showguides="true"
     inkscape:guide-bbox="true"
     inkscape:snap-nodes="true"
     inkscape:snap-others="true"
     inkscape:object-nodes="true"
     inkscape:snap-center="true">
    <inkscape:grid
       type="xygrid"
       id="grid4747"
       empspacing="5"
       spacingx="2"
       spacingy="2" />
    <sodipodi:guide
       position="200,25"
       orientation="0,1"
       id="guide5334"
       inkscape:label=""
       inkscape:color="rgb(0,0,255)" />
    <sodipodi:guide
       position="0,-30"
       orientation="0,1"
       id="guide5336" />
    <sodipodi:guide
       position="0,-80"
       orientation="0,1"
       id="guide5375" />
    <inkscape:grid
       type="xygrid"
       id="grid5496"
       color="#ff3f3f"
       opacity="0.1254902"
       empspacing="1"
       spacingx="40"
       spacingy="50.000001"
       empcolor="#ff3f3f"
       empopacity="0.25098039" />
  </sodipodi:namedview>
  <metadata
     id="metadata4204">
    <rdf:RDF>
      <cc:Work
         rdf:about="">
        <dc:format>image/svg+xml</dc:format>
        <dc:type
           rdf:resource="http://purl.org/dc/dcmitype/StillImage" />
        <dc:title></dc:title>
      </cc:Work>
    </rdf:RDF>
  </metadata>
  <g
     inkscape:label="Layer 1"
     inkscape:groupmode="layer"
     id="layer1"
     transform="translate(0,-1036.3621)"
     style="display:inline">
    <rect
       style="opacity:1;fill:url(#radialGradient10777);fill-opacity:1;stroke:none;stroke-width:1;stroke-linecap:butt;stroke-linejoin:miter;stroke-miterlimit:4;stroke-dasharray:none;stroke-opacity:1"
       id="rect10101"
       width="32.401703"
       height="21.601133"
       x="-2.3352597"
       y="1034.9954" />
    <path
       style="opacity:1;fill:#000000;fill-opacity:1;stroke:none;stroke-width:2;stroke-linecap:square;stroke-linejoin:round;stroke-miterlimit:4;stroke-dasharray:none;stroke-opacity:0.50196078"
       d="m -27.70012,1047.5184 c 1.892275,0.377 3.187163,1.2335 2.688368,2.1681 -0.294327,0.085 -0.578887,0.1674 -0.852244,0.2569 -1.624633,0.043 -3.168389,-1.303 -5.301675,-0.5339 1.108683,0.2816 2.489461,0.8753 2.122029,1.6504 -0.161033,0.064 -0.326406,0.1287 -0.479881,0.1918 -1.387514,0.1327 -2.785036,-0.7116 -4.69581,-0.059 1.004345,0.1571 2.266511,0.5612 2.083225,1.2619 -0.259647,0.1324 -0.517651,0.2635 -0.7655,0.3939 -1.169043,0.1718 -2.39523,-0.4705 -3.981659,0.1749 0.845495,0.083 1.912859,0.3575 1.838932,0.9387 -0.277098,0.1395 -0.552362,0.2786 -0.847538,0.4166 -0.09988,0.047 -0.252009,0.1093 -0.37756,0.1643 -0.943485,-0.01 -1.880401,-0.5817 -3.196582,-0.2001 0.677258,0.1388 1.515833,0.4462 1.44802,0.9037 -0.345149,0.1321 -0.807094,0.3011 -1.21225,0.4526 -0.860366,-0.1275 -1.725086,-0.6182 -2.946105,-0.3281 0.633733,0.1626 1.403275,0.4836 1.407938,0.902 -0.314377,0.1149 -0.727349,0.2603 -1.064928,0.3819 -0.82461,0.095 -1.56117,-0.5346 -2.709198,-0.2618 0.57152,0.1466 1.284703,0.4613 1.016436,0.8682 -0.399766,0.1427 -0.720982,0.2606 -1.144431,0.4101 -0.757586,9e-4 -1.469242,-0.5257 -2.536856,-0.272 0.535145,0.1372 1.189159,0.4233 1.051257,0.793 -0.468042,0.1645 -0.955304,0.3356 -1.446084,0.5078 -0.719298,-0.044 -1.413182,-0.5145 -2.431409,-0.2725 0.513879,0.1318 1.14398,0.4001 1.071399,0.7486 -0.463195,0.1621 -0.984472,0.343 -1.464318,0.5099 -0.678745,-0.045 -1.335829,-0.4859 -2.297009,-0.2575 0.482235,0.1237 1.073922,0.374 1.02036,0.6993 -0.519379,0.1803 -1.112838,0.3853 -1.64823,0.5713 -0.607373,-0.1042 -1.224304,-0.4357 -2.085744,-0.2309 0.433855,0.1113 0.94915,0.3254 1.010712,0.604 -0.656776,0.2274 -1.307885,0.4542 -1.984898,0.6881 -0.60306,-0.1068 -1.216279,-0.4336 -2.071439,-0.2304 0.43052,0.1105 0.942575,0.322 1.010728,0.5975 -0.637485,0.2208 -1.190681,0.4131 -1.842782,0.6385 -0.54897,-0.058 -1.089591,-0.3941 -1.868294,-0.2091 0.391012,0.1003 0.86319,0.3003 0.85377,0.56 -0.721986,0.2494 -1.458883,0.5062 -2.194745,0.761 -0.355838,-0.096 -0.743525,-0.1807 -1.22206,-0.067 0.224948,0.058 0.475953,0.1499 0.648962,0.2657 -1.786626,0.6177 -3.631681,1.2583 -5.473448,1.8968 0.878233,-0.732 2.149821,-1.5878 2.149821,-1.5878 0,0 -3.833612,1.9349 -7.364935,3.3674 0.06542,-0.019 0.146507,-0.03 0.214661,-0.046 -0.05034,0.014 -0.09472,0.038 -0.145092,0.052 0.438104,-0.096 0.847259,-0.1898 1.28226,-0.2854 2.985721,-0.531 6.912046,-0.7161 6.912046,-0.7161 0,0 -1.759296,-0.056 -2.852515,-0.1902 7.928797,-1.7804 15.068111,-3.4481 20.747018,-4.7341 0.13058,0.126 -0.06871,0.4033 -0.254807,0.5921 0.522532,-0.1657 0.686551,-0.5782 1.016047,-0.7661 0.682251,-0.1535 1.226334,-0.2703 1.860546,-0.4108 0.300154,0.1394 0.0054,0.5863 -0.271142,0.8843 0.746312,-0.2626 0.952581,-0.8717 1.432604,-1.141 0.489065,-0.1071 1.051884,-0.2344 1.506456,-0.3315 0.298194,0.2649 -0.13578,0.8588 -0.54048,1.2599 1.1178,-0.342 1.473845,-1.2192 2.184943,-1.6064 0.326836,-0.068 0.648389,-0.1324 0.950905,-0.1928 0.369297,0.3479 -0.188961,1.1257 -0.705847,1.6529 1.341769,-0.4308 1.827968,-1.4454 2.616442,-2.0113 0.222566,-0.038 0.450502,-0.079 0.65002,-0.112 0.364723,0.5188 -0.439298,1.4632 -1.163887,2.0963 1.707967,-0.4065 2.485964,-1.5579 3.476672,-2.2666 0.03253,0.01 0.06989,0.019 0.08978,0.033 0.01525,0.011 0.0329,0.02 0.04847,0.031 -0.11948,0.3791 -0.158921,0.7256 -0.108295,1.0172 -0.003,0.011 -0.01183,0.014 -0.0161,0.019 -0.127658,0.2244 -0.02646,0.4335 0.22932,0.6104 -0.03822,0.2866 0.113986,0.5888 0.402772,0.8647 0.116386,0.1508 0.262822,0.2674 0.438399,0.3426 0.01152,0.01 0.0225,0.01 0.03338,0.011 0.61343,0.373 1.477156,0.6345 2.379288,0.6202 0.950822,-0.015 1.427736,-0.056 1.742176,-0.1683 0.144304,0.048 0.331779,0.1339 0.561147,0.1836 -0.01857,0.2314 -0.001,0.4041 0.109199,0.4624 0.134979,0.4379 0.701129,0.7872 0.58607,0.5827 -0.09889,-0.1757 -0.116916,-0.3499 -0.113484,-0.5554 0.105259,-0.073 0.01615,-0.2767 0.176038,-0.4506 0.03978,-0.055 0.06189,-0.074 0.09732,-0.1197 0.0061,0 0.01113,0 0.01742,-0.01 0.426993,-0.1869 0.643058,-0.069 0.812198,-0.03 0.283858,0.3578 0.427311,0.6554 0.603419,0.721 0.0703,0.1486 0.119347,0.2923 0.113149,0.4629 -0.0074,0.2039 0.250673,-0.2018 0.266313,-0.6077 0.158559,-0.1197 0.02525,-0.3565 -0.218182,-0.6795 0.252039,0.2132 0.431377,0.3657 0.594591,0.3417 0.115804,0.1342 0.205724,0.2673 0.244334,0.444 0.04652,0.2127 0.217756,-0.3243 0.0898,-0.7357 0.06895,-0.1147 0.0011,-0.2466 -0.153271,-0.3997 0.108137,0.061 0.205811,0.096 0.29226,0.072 0.160856,0.1431 0.28048,0.2772 0.343081,0.4759 0.0706,0.2236 0.202288,-0.4282 -0.02492,-0.826 0.06709,-0.2446 -0.419397,-0.5219 -1.003613,-0.9021 -0.10504,-0.069 -0.443514,-0.087 -0.581212,-0.1129 -0.174607,-0.033 -0.33032,-0.041 -0.476099,-0.039 0.01039,-0.014 0.01638,-0.028 0.0311,-0.042 0.04022,-0.049 0.06347,-0.067 0.09979,-0.108 0.0079,0 0.01465,0 0.02262,-0.01 0.51441,-0.2341 0.782743,-0.1608 0.991468,-0.1698 0.241791,0.2579 0.369994,0.4667 0.558091,0.5087 0.06107,0.1176 0.086,0.2292 0.05351,0.3643 -0.03872,0.1608 0.323646,-0.1602 0.402177,-0.4801 0.09683,-0.046 0.124324,-0.1109 0.09416,-0.1959 0.123108,0.061 0.239838,0.1005 0.351488,0.088 0.120536,0.1034 0.21006,0.2065 0.234559,0.345 0.02955,0.1668 0.294195,-0.2601 0.192788,-0.5816 0.04631,-0.045 0.05452,-0.092 0.0315,-0.1421 0.10451,0.1 0.182425,0.1998 0.200452,0.3314 0.02473,0.1806 0.342818,-0.3226 0.18122,-0.651 0.139388,-0.1876 -0.352932,-0.4389 -0.930938,-0.7779 -0.103777,-0.061 -0.490063,-0.099 -0.642452,-0.1291 -0.03966,-0.01 -0.07455,-0.01 -0.113085,-0.016 2.936278,-0.7098 5.846498,-1.7116 7.954248,-2.4965 0.04504,0.05 0.09523,0.097 0.150708,0.1431 -0.01685,0.2602 0.116074,0.5397 0.359903,0.8045 0.106208,0.1572 0.244199,0.2826 0.413879,0.3686 0.01018,0.01 0.01951,0.01 0.02903,0.013 0.588077,0.4128 1.43473,0.7304 2.337244,0.7746 0.949479,0.047 1.427454,0.037 1.748547,-0.055 0.140808,0.057 0.322519,0.1548 0.547925,0.2194 -0.03359,0.23 -0.02658,0.4038 0.08,0.4689 0.106792,0.4454 0.648231,0.8309 0.546752,0.6195 -0.08732,-0.1818 -0.09273,-0.3575 -0.07594,-0.5624 0.108038,-0.068 0.03302,-0.2751 0.203313,-0.4377 0.0434,-0.052 0.06647,-0.07 0.104764,-0.1136 0.0064,0 0.01167,0 0.01826,-0.01 0.469326,-0.1701 0.673311,-0.011 0.845965,0.028 0.141889,0.3768 0.204042,0.6692 0.3425396,0.7738 0.025529,0.1627 0.031873,0.3146 -0.022352,0.4768 -0.06466,0.1934 0.2975454,-0.1225 0.4273388,-0.5072 0.088415,-0.036 0.1252892,-0.1091 0.1179323,-0.2245 0.087978,0.1073 0.1745294,0.1863 0.2682638,0.1975 0.077368,0.1599 0.1298808,0.311 0.1214735,0.4919 -0.010046,0.2175 0.2946238,-0.2559 0.2775121,-0.6864 0.046979,-0.045 0.063445,-0.1026 0.055045,-0.1714 0.064947,0.151 0.1077878,0.2969 0.095558,0.4672 -0.016828,0.234 0.3460853,-0.3242 0.2811768,-0.7779 0.1530514,-0.2024 -0.1977244,-0.6388 -0.6009777,-1.2079 -0.065557,-0.092 -0.3116017,-0.2124 -0.4479562,-0.2909 0.014268,-0.099 0.01603,-0.2057 0.00397,-0.3122 0.1393053,-0.1423 -0.029018,-0.3571 -0.3189518,-0.6401 0.2807154,0.1722 0.480676,0.2951 0.6382145,0.2481 0.1352821,0.1155 0.2454571,0.233 0.3104728,0.4022 0.078116,0.2032 0.1654659,-0.3527 -0.022645,-0.74 0.051777,-0.1237 -0.036703,-0.245 -0.2136279,-0.3736 0.1171196,0.045 0.2198392,0.065 0.302049,0.028 0.1804893,0.117 0.3188216,0.2326 0.4106884,0.4195 0.1034859,0.2103 0.1351153,-0.4536 -0.1492609,-0.8128 0.03129,-0.2524 -0.4924023,-0.4524 -1.1284492,-0.7405 -0.1143003,-0.052 -0.4521944,-0.019 -0.5922409,-0.024 -0.261495,-0.01 -0.483646,0.019 -0.672505,0.07 -0.328961,0.013 -0.740223,0.091 -1.258962,0.2519 -0.05064,0.015 -0.09932,0.039 -0.148677,0.063 -0.17302,-0.076 -0.410712,-0.1561 -0.713819,-0.2422 0.141842,-0.3657 0.236298,-0.7187 0.282686,-1.0498 0.583611,-0.6055 0.883794,-1.1521 1.699942,-1.7028 1.5008108,-1.0128 10.95369345,-4.3129 14.2065138,-5.3668 -0.7944915,0.8438 -1.6773639,1.6049 -1.6773639,1.6049 0,0 0.8614315,-0.3657 1.8654712,-0.7752 -0.9517187,1.2818 -2.49694605,2.8221 -2.49694605,2.8221 0,0 3.45695055,-2.4626 5.71926045,-3.2402 1.7455356,-0.1326 7.2492785,-1.9829 8.4625395,-2.5119 0.219735,-0.5847 0.18129,-0.6455 0.0555,-1.2291 -0.07318,0.032 -0.183686,0.053 -0.283553,0.082 l -0.267029,-0.9624 -0.210869,0.7179 -0.103786,-0.4403 -0.168222,0.634 -0.481464,-0.7326 -0.126017,1.0308 -0.276298,-0.8315 -0.290947,0.8354 -0.260224,-0.7402 -0.309875,0.9427 c -0.04701,0 -0.09281,0.011 -0.139193,0.017 l -0.220043,-0.9336 -0.281982,0.9967 c -0.02894,0.01 -0.05997,0.01 -0.09,0.011 l -0.40328,-0.7589 -0.03881,0.8142 c -0.07841,0.01 -0.15799,0.021 -0.235559,0.03 l -0.19809,-0.8382 -0.406774,0.901 c -0.343863,0.036 -0.7030229,0.075 -0.9935529,0.1007 -0.899925,0.081 -1.093065,-0.3748 -1.178824,-1.1201 0.506723,-0.3258 1.137631,-0.6754 1.7855909,-1.0188 l 0.838177,0.5843 -0.277789,-0.8792 c 0.0073,0 0.01448,0 0.02173,-0.01 l 0.697615,0.9586 -0.143229,-1.0265 0.70167,0.5294 -0.308302,-0.9259 c 0.0073,0 0.01448,0 0.02173,-0.01 l 0.986615,0.9476 -0.271384,-1.1959 0.824604,1.049 -0.156691,-1.0046 0.854471,0.4776 -0.296427,-0.7088 0.833143,0.7591 -0.327217,-1.0467 c 0.49067,0.154 0.949616,0.4709 0.949616,0.4709 0,0 -0.240199,-1.0317 -1.35819,-1.548 -0.176184,-0.081 -0.542607,-0.099 -1.016122,-0.078 -0.322086,-0.095 -0.693078,-0.366 -0.693078,-0.366 0,0 -0.334912,0.3139 -0.685949,0.4962 -0.165061,0.021 -0.337551,0.043 -0.512241,0.067 -0.299829,-0.1115 -0.610998,-0.3397 -0.610998,-0.3397 0,0 -0.4074459,0.382 -0.7957349,0.5468 -0.661263,0.1058 -1.2747675,0.2044 -1.9364778,0.3177 a 0.73171541,1.4394402 79.054784 0 0 -0.4055781,-0.19 0.73171541,1.4394402 79.054784 0 0 -1.5616978,0.1764 0.73171541,1.4394402 79.054784 0 0 -0.59631,0.4412 c -0.8261406,0.1287 -1.4918323,0.2165 -1.7754439,0.1966 -1.2410503,-0.087 -5.9063985,1.2341 -5.9063985,1.2341 0.9504497,-0.1958 2.17987915,-0.013 3.20364225,0.3093 -1.2106868,0.1039 -2.31921135,0.2513 -2.47989335,0.4692 0.3875741,-0.16 1.92730825,0.1631 3.04695805,0.6703 -0.2752739,0.069 -0.5881403,0.1597 -0.9435931,0.2604 -0.741115,-0.065 -1.68864455,-0.4038 -2.58930935,-0.1797 0.4116341,0.2529 0.9362458,0.4599 0.9832229,0.6328 -0.1604876,0.046 -0.3492419,0.101 -0.5166682,0.1494 -0.6562414,-0.1383 -1.3726523,-0.5428 -2.2134569,-0.3336 0.4075531,0.2504 0.9363402,0.4892 0.9967049,0.6761 -0.3175111,0.092 -0.5768116,0.1668 -0.9099897,0.2528 -0.6502474,-0.2354 -1.3020608,-0.6594 -2.2120425,-0.433 0.4068744,0.25 0.8084394,0.5364 0.9428956,0.7736 -0.2520226,0.062 -0.498664,0.1327 -0.7521684,0.1988 -1.1204228,-0.1331 -2.1088097,-1.1352 -3.6404768,-0.7541 0.7563327,0.2768 1.678325,0.7882 1.4009225,1.3047 -0.2500215,0.058 -0.4910627,0.1087 -0.7378894,0.1634 -1.3035165,-0.3691 -2.4603535,-1.5326 -4.3192295,-1.1911 0.905309,0.3967 1.986033,1.0806 1.732637,1.6988 -0.273066,0.044 -0.535402,0.08 -0.793771,0.1136 -1.510218,-0.4134 -2.679911,-1.9713 -4.858928,-1.7439 0.99518,0.5318 2.175273,1.4225 1.677901,2.0832 -0.118125,0.014 -0.247774,0.032 -0.371589,0.048 -2.036531,-0.1404 -3.628247,-2.1872 -6.405254,-1.6642 1.291779,0.5592 2.854781,1.5607 2.153618,2.4244 -0.151424,0.033 -0.314055,0.072 -0.47111,0.1081 -2.019126,-0.092 -3.601008,-1.9102 -6.743777,-1.1139 z m 33.6443251,-5.789 c 0.2710242,0.069 0.5741267,0.1073 0.7481686,0.2502 0.00264,0.043 -0.00172,0.086 -0.012028,0.1279 -0.057082,0.2269 -0.2872148,0.3644 -0.5141724,0.308 -0.2272897,-0.057 -0.3654729,-0.2867 -0.3088638,-0.514 0.019439,-0.077 0.029247,-0.1169 0.086899,-0.1721 z m -34.7846141,19.4296 c 0.07712,0 0.178632,0.012 0.276862,0.022 -0.07386,0.01 -0.136239,0.012 -0.214409,0.024 -0.05273,0 -0.104196,0.02 -0.153954,0.045 -0.0182,-0.011 -0.02948,-0.022 -0.0493,-0.034 0.05177,-0.015 0.09698,-0.038 0.142202,-0.053 z m 17.890499,-4.0843 c 0.242698,-0.084 0.406584,-0.035 0.537449,-0.025 0.190944,0.1772 0.328257,0.3289 0.4485797,0.4462 -0.2002687,-0.062 -0.3809127,-0.082 -0.5365277,-0.069 -0.233643,-0.024 -0.517362,-0.024 -0.839681,-0.01 0.0097,-0.025 0.01838,-0.05 0.03555,-0.076 0.03074,-0.06 0.04897,-0.082 0.07692,-0.1316 0.0067,0 0.01238,0 0.01914,-0.01 0.09559,-0.061 0.181713,-0.1014 0.259541,-0.1292 z"
       id="path4885"
       inkscape:connector-curvature="0" />
    <path
       style="fill:#000000;fill-rule:evenodd;stroke:none;stroke-width:1px;stroke-linecap:butt;stroke-linejoin:miter;stroke-opacity:1"
       d="m -2.8504313,1042.593 c 0.9504488,-0.1958 2.17990695,-0.013 3.20364125,0.3092 -1.210658,0.1041 -2.31918255,0.2514 -2.47986545,0.4694 0.387574,-0.16 1.92728135,0.163 3.04693115,0.6702 -0.2752748,0.069 -0.5881403,0.1596 -0.943594,0.2604 -0.010865,0 -0.02636,0 -0.038384,-0.01 l 2.83962295,1.2864 0.4103489,1.7155 -0.010423,0 c 0.032421,-0.01 0.096422,-0.038 0.1276934,-0.047 -0.7944905,0.8437 -1.6773629,1.6048 -1.6773629,1.6048 0,0 0.8614315,-0.3657 1.8654712,-0.7751 -0.9517188,1.2817 -2.49694605,2.822 -2.49694605,2.822 0,0 3.45695045,-2.4626 5.71926045,-3.2402 1.7455358,-0.1325 7.2492784,-1.9829 8.4625394,-2.5119 0.219735,-0.5846 0.18129,-0.6454 0.0555,-1.2291 -0.07318,0.032 -0.183686,0.053 -0.283554,0.082 l -0.267028,-0.9624 -0.210869,0.718 -0.103786,-0.4403 -0.168223,0.634 -0.481463,-0.7327 -0.126017,1.0309 -0.276298,-0.8316 -0.290947,0.8354 -0.260224,-0.7401 -0.309875,0.9427 c -0.047,0 -0.09281,0.011 -0.139193,0.017 l -0.220044,-0.9336 -0.281981,0.9968 c -0.02894,0.01 -0.05997,0.01 -0.09,0.011 l -0.40328,-0.7589 -0.03881,0.8142 c -0.07842,0.01 -0.157991,0.021 -0.23556,0.03 l -0.198089,-0.8381 -0.406774,0.9009 c -0.343863,0.036 -0.7030236,0.075 -0.9935536,0.1007 -0.899925,0.081 -1.093064,-0.3748 -1.178823,-1.1201 0.506723,-0.3258 1.137631,-0.6754 1.7855906,-1.0187 l 0.838177,0.5842 -0.27779,-0.8791 c 0.0073,0 0.01448,0 0.02173,-0.01 l 0.697587,0.9585 -0.143201,-1.0264 0.70167,0.5294 -0.30833,-0.926 c 0.0073,0 0.01448,0 0.02173,-0.01 l 0.986587,0.9475 -0.271356,-1.1957 0.824604,1.049 -0.156691,-1.0047 0.854471,0.4777 -0.296427,-0.7089 0.833143,0.7591 -0.327244,-1.0468 c 0.490697,0.1541 0.949643,0.4711 0.949643,0.4711 0,0 -0.240199,-1.0317 -1.35819,-1.5481 -0.176184,-0.081 -0.542607,-0.099 -1.016122,-0.078 -0.322086,-0.095 -0.693078,-0.3661 -0.693078,-0.3661 0,0 -0.334912,0.3139 -0.685949,0.4962 -0.165061,0.021 -0.337551,0.043 -0.512241,0.067 -0.299829,-0.1115 -0.610998,-0.3397 -0.610998,-0.3397 0,0 -0.4074456,0.382 -0.7957346,0.5468 -0.661541,0.1049 -1.2747675,0.2045 -1.9364778,0.3178 -0.098379,-0.083 -0.2369117,-0.1481 -0.4055782,-0.19 -0.4562331,-0.1122 -1.0706079,-0.043 -1.5616977,0.1764 -0.2681039,0.1191 -0.4774188,0.2745 -0.59631,0.4411 -0.8261406,0.1288 -1.4918323,0.2166 -1.7754448,0.1967 -1.2410494,-0.087 -5.9063976,1.234 -5.9063976,1.234 z"
       id="path5368"
       inkscape:connector-curvature="0"
       sodipodi:nodetypes="ccccccccccccccccccccccccccccccccccccccccccccccccccccccccsccccccccccscc" />
    <path
       style="fill:#000000;fill-rule:evenodd;stroke:none;stroke-width:1px;stroke-linecap:butt;stroke-linejoin:miter;stroke-opacity:1"
       d="m -41.532955,1023.0032 c -0.428118,0.084 -0.721236,0.1815 -0.996973,0.4497 -0.275688,0.2691 0.07144,-0.8676 0.748632,-1.1777 0.677181,-0.3102 0.248121,0.7281 0.248121,0.7281 z"
       id="path5500"
       inkscape:connector-curvature="0"
       inkscape:transform-center-x="24.286447"
       inkscape:transform-center-y="-28.699268" />
    <circle
       r="3.9634268"
       cy="1005.2363"
       cx="-309.16266"
       id="circle5286"
       style="opacity:1;fill:#ff0000;fill-opacity:1;stroke:none;stroke-width:2;stroke-linecap:square;stroke-linejoin:round;stroke-miterlimit:4;stroke-dasharray:none;stroke-opacity:0.50196078"
       transform="matrix(0.96063538,-0.2778123,0.2778123,0.96063538,0,0)" />
    <circle
       style="opacity:1;fill:#ff0000;fill-opacity:1;stroke:none;stroke-width:2;stroke-linecap:square;stroke-linejoin:round;stroke-miterlimit:4;stroke-dasharray:none;stroke-opacity:0.50196078"
       id="circle5288"
       cx="-316.58011"
       cy="1005.2363"
       r="3.7811661"
       transform="matrix(0.96063538,-0.2778123,0.2778123,0.96063538,0,0)" />
    <circle
       r="3.0950458"
       cy="1005.2363"
       cx="-323.07037"
       id="circle5290"
       style="opacity:1;fill:#ff0000;fill-opacity:1;stroke:none;stroke-width:2;stroke-linecap:square;stroke-linejoin:round;stroke-miterlimit:4;stroke-dasharray:none;stroke-opacity:0.50196078"
       transform="matrix(0.96063538,-0.2778123,0.2778123,0.96063538,0,0)" />
    <circle
       style="opacity:1;fill:#ff0000;fill-opacity:1;stroke:none;stroke-width:2;stroke-linecap:square;stroke-linejoin:round;stroke-miterlimit:4;stroke-dasharray:none;stroke-opacity:0.50196078"
       id="circle5292"
       cx="-330.48785"
       cy="1005.2363"
       r="2.0142548"
       transform="matrix(0.96063538,-0.2778123,0.2778123,0.96063538,0,0)" />
    <circle
       r="1.6121277"
       cy="1005.2363"
       cx="-336.97812"
       id="circle5294"
       style="opacity:1;fill:#ff0000;fill-opacity:1;stroke:none;stroke-width:2;stroke-linecap:square;stroke-linejoin:round;stroke-miterlimit:4;stroke-dasharray:none;stroke-opacity:0.50196078"
       transform="matrix(0.96063538,-0.2778123,0.2778123,0.96063538,0,0)" />
    <circle
       style="opacity:1;fill:#ff0000;fill-opacity:1;stroke:none;stroke-width:2;stroke-linecap:square;stroke-linejoin:round;stroke-miterlimit:4;stroke-dasharray:none;stroke-opacity:0.50196078"
       id="circle5296"
       cx="-342.5412"
       cy="1005.2363"
       r="1.2746782"
       transform="matrix(0.96063538,-0.2778123,0.2778123,0.96063538,0,0)" />
    <circle
       r="0.98784578"
       cy="1005.2363"
       cx="-348.10431"
       id="circle5298"
       style="opacity:1;fill:#ff0000;fill-opacity:1;stroke:none;stroke-width:2;stroke-linecap:square;stroke-linejoin:round;stroke-miterlimit:4;stroke-dasharray:none;stroke-opacity:0.50196078"
       transform="matrix(0.96063538,-0.2778123,0.2778123,0.96063538,0,0)" />
    <circle
       style="opacity:1;fill:#ff0000;fill-opacity:1;stroke:none;stroke-width:2;stroke-linecap:square;stroke-linejoin:round;stroke-miterlimit:4;stroke-dasharray:none;stroke-opacity:0.50196078"
       id="circle5300"
       cx="-352.7402"
       cy="1005.2363"
       r="0.8854056"
       transform="matrix(0.96063538,-0.2778123,0.2778123,0.96063538,0,0)" />
    <circle
       r="0.51662099"
       cy="1005.2363"
       cx="-357.37613"
       id="circle5302"
       style="opacity:1;fill:#ff0000;fill-opacity:1;stroke:none;stroke-width:2;stroke-linecap:square;stroke-linejoin:round;stroke-miterlimit:4;stroke-dasharray:none;stroke-opacity:0.50196078"
       transform="matrix(0.96063538,-0.2778123,0.2778123,0.96063538,0,0)" />
    <circle
       style="opacity:1;fill:#ff0000;fill-opacity:1;stroke:none;stroke-width:2;stroke-linecap:square;stroke-linejoin:round;stroke-miterlimit:4;stroke-dasharray:none;stroke-opacity:0.50196078"
       id="circle5304"
       cx="-362.01205"
       cy="1005.2363"
       r="0.27918041"
       transform="matrix(0.96063538,-0.2778123,0.2778123,0.96063538,0,0)" />
    <circle
       r="1.6902627"
       cy="1005.2427"
       cx="-287.80902"
       id="circle5373"
       style="opacity:1;fill:#000000;fill-opacity:1;stroke:none;stroke-width:2;stroke-linecap:square;stroke-linejoin:round;stroke-miterlimit:4;stroke-dasharray:none;stroke-opacity:0.50196078"
       transform="matrix(0.96063538,-0.2778123,0.2778123,0.96063538,0,0)" />
    <path
       style="opacity:1;fill:#000000;fill-opacity:1;stroke:none;stroke-width:2;stroke-linecap:square;stroke-linejoin:round;stroke-miterlimit:4;stroke-dasharray:none;stroke-opacity:0.50196078"
       d="m -19.837989,1052.1659 4.224907,-1.2219 c -0.861816,-3.81 -1.694898,-7.7385 -2.348914,-12.4064 -0.02388,-3.9299 0.634307,-8.7987 1.33993,-13.7327 -4.310672,-1.5924 -8.754446,-2.8334 -13.260844,-3.909 -3.929906,0.1793 -7.679722,0.6684 -11.381733,1.2397 0.231978,0.063 0.114646,0.7913 0.344941,0.8574 5.042252,1.4478 9.729216,2.9744 0.336418,7.3658 0.24158,-0.016 0.152785,0.6413 0.388144,0.617 6.040818,-0.625 10.469251,-0.5136 3.500526,7.2904 0.251053,-0.024 0.406012,0.5209 0.625161,0.4086 5.116175,-2.619 9.562145,-3.1523 5.273576,4.8835 0.267129,0 0.604322,0.3725 0.852277,0.3233 9.021957,-1.7912 11.385293,6.0467 10.105607,8.2843 z"
       id="path5498"
       inkscape:connector-curvature="0"
       sodipodi:nodetypes="ccccccscscscsc"
       inkscape:transform-center-x="10.713314"
       inkscape:transform-center-y="-15.024005" />
    <ellipse
       style="opacity:1;fill:#000000;fill-opacity:1;stroke:none;stroke-width:2;stroke-linecap:square;stroke-linejoin:round;stroke-miterlimit:4;stroke-dasharray:none;stroke-opacity:0.50196078"
       id="path5529"
       cx="-323.76788"
       cy="970.87671"
       rx="0.47037849"
       ry="0.53652549"
       inkscape:transform-center-x="23.575856"
       inkscape:transform-center-y="-28.949632"
       transform="matrix(0.96063538,-0.2778123,0.2778123,0.96063538,0,0)" />
    <path
       inkscape:connector-curvature="0"
       id="path5531"
       d="m -40.606175,1031.1242 c -0.450428,0.1303 -0.755373,0.2612 -1.025292,0.5746 -0.269983,0.3138 -0.0046,-0.9354 0.691387,-1.3308 0.695968,-0.3953 0.33366,0.7563 0.33366,0.7563 z"
       style="fill:#000000;fill-rule:evenodd;stroke:none;stroke-width:1px;stroke-linecap:butt;stroke-linejoin:miter;stroke-opacity:1"
       inkscape:transform-center-x="23.398183"
       inkscape:transform-center-y="-20.537773" />
    <ellipse
       ry="0.45623165"
       rx="0.43591306"
       cy="949.90656"
       cx="-416.61383"
       id="ellipse5533"
       style="opacity:1;fill:#000000;fill-opacity:1;stroke:none;stroke-width:2;stroke-linecap:square;stroke-linejoin:round;stroke-miterlimit:4;stroke-dasharray:none;stroke-opacity:0.50196078"
       transform="matrix(0.93541887,-0.35354141,0.36767687,0.92995361,0,0)"
       inkscape:transform-center-x="22.724245"
       inkscape:transform-center-y="-20.895579" />
    <path
       style="fill:#000000;fill-rule:evenodd;stroke:none;stroke-width:1px;stroke-linecap:butt;stroke-linejoin:miter;stroke-opacity:1"
       d="m -36.449225,1038.9649 c -0.303674,0.2418 -0.495594,0.4385 -0.603461,0.7633 -0.107666,0.3253 -0.298669,-0.7145 0.109312,-1.2367 0.407943,-0.5222 0.493984,0.4736 0.493984,0.4736 z"
       id="path5535"
       inkscape:connector-curvature="0"
       inkscape:transform-center-x="19.095328"
       inkscape:transform-center-y="-12.489809" />
    <ellipse
       transform="matrix(0.72512041,-0.68862209,0.68862209,0.72512041,0,0)"
       style="opacity:1;fill:#000000;fill-opacity:1;stroke:none;stroke-width:2;stroke-linecap:square;stroke-linejoin:round;stroke-miterlimit:4;stroke-dasharray:none;stroke-opacity:0.50196078"
       id="ellipse5537"
       cx="-741.62488"
       cy="727.96265"
       rx="0.36110061"
       ry="0.41188037"
       inkscape:transform-center-x="18.750636"
       inkscape:transform-center-y="-12.995038" />
    <path
       inkscape:connector-curvature="0"
       id="path5539"
       d="m -30.372364,1044.1541 c -0.198397,0.302 -0.311086,0.5316 -0.312193,0.8503 -7.96e-4,0.3189 -0.471577,-0.5454 -0.262274,-1.1257 0.209262,-0.5803 0.574364,0.2755 0.574364,0.2755 z"
       style="fill:#000000;fill-rule:evenodd;stroke:none;stroke-width:1px;stroke-linecap:butt;stroke-linejoin:miter;stroke-opacity:1"
       inkscape:transform-center-x="12.960868"
       inkscape:transform-center-y="-7.1799682" />
    <ellipse
       ry="0.3834171"
       rx="0.33614653"
       cy="468.17233"
       cx="-933.41919"
       id="ellipse5541"
       style="opacity:1;fill:#000000;fill-opacity:1;stroke:none;stroke-width:2;stroke-linecap:square;stroke-linejoin:round;stroke-miterlimit:4;stroke-dasharray:none;stroke-opacity:0.50196078"
       transform="matrix(0.47426207,-0.88038372,0.88038372,0.47426207,0,0)"
       inkscape:transform-center-x="12.788364"
       inkscape:transform-center-y="-7.7513731" />
    <ellipse
       style="opacity:1;fill:#000000;fill-opacity:1;stroke:none;stroke-width:2;stroke-linecap:square;stroke-linejoin:round;stroke-miterlimit:4;stroke-dasharray:none;stroke-opacity:0.50196078"
       id="path5543"
       cx="-26.517429"
       cy="1021.3489"
       rx="0.82316238"
       ry="0.45567918"
       transform="matrix(0.99999408,0.00344225,-0.00344225,0.99999408,0,0)"
       inkscape:transform-center-x="12.307498"
       inkscape:transform-center-y="-30.303347" />
    <ellipse
       transform="matrix(0.92916075,-0.36967594,0.36967594,0.92916075,0,0)"
       ry="0.45567918"
       rx="0.82316238"
       cy="946.21143"
       cx="-394.94394"
       id="ellipse5545"
       style="opacity:1;fill:#000000;fill-opacity:1;stroke:none;stroke-width:2;stroke-linecap:square;stroke-linejoin:round;stroke-miterlimit:4;stroke-dasharray:none;stroke-opacity:0.50196078"
       inkscape:transform-center-x="-0.55075006"
       inkscape:transform-center-y="-26.371081" />
    <path
       style="opacity:1;fill:url(#radialGradient9924);fill-opacity:1;stroke:none;stroke-width:1;stroke-linecap:butt;stroke-linejoin:miter;stroke-miterlimit:4;stroke-dasharray:none;stroke-opacity:1"
       d="m 6.2631297,1041.7287 a 0.38463778,1.2535231 79.085399 0 0 -1.1395586,0.4682 0.38463778,1.2535231 79.085399 0 0 1.1812539,0.046 0.38463778,1.2535231 79.085399 0 0 1.1399179,-0.4684 0.38463778,1.2535231 79.085399 0 0 -1.1816132,-0.045 z"
       id="path9910"
       inkscape:connector-curvature="0" />
    <path
       inkscape:connector-curvature="0"
       id="path9926"
       d="m 6.8522924,1041.8339 a 0.22368268,0.31002005 10.642329 0 0 -0.1583308,-0.255 0.22368268,0.31002005 10.642329 0 0 -0.1443909,0.3173 0.22368268,0.31002005 10.642329 0 0 0.1583586,0.2551 0.22368268,0.31002005 10.642329 0 0 0.1443631,-0.3174 z"
       style="opacity:1;fill:#000000;fill-opacity:1;stroke:none;stroke-width:1;stroke-linecap:butt;stroke-linejoin:miter;stroke-miterlimit:4;stroke-dasharray:none;stroke-opacity:1" />
  </g>
</svg>
