<?xml version="1.0" encoding="UTF-8" standalone="no"?>
<!-- Created with Inkscape (http://www.inkscape.org/) -->

<svg
   xmlns:dc="http://purl.org/dc/elements/1.1/"
   xmlns:cc="http://creativecommons.org/ns#"
   xmlns:rdf="http://www.w3.org/1999/02/22-rdf-syntax-ns#"
   xmlns:svg="http://www.w3.org/2000/svg"
   xmlns="http://www.w3.org/2000/svg"
   xmlns:sodipodi="http://sodipodi.sourceforge.net/DTD/sodipodi-0.dtd"
   xmlns:inkscape="http://www.inkscape.org/namespaces/inkscape"
   width="200"
   height="300"
   viewBox="0 0 200 299.99999"
   id="svg2"
   version="1.1"
   inkscape:version="0.91 r13725"
   sodipodi:docname="ground.svg"
   inkscape:export-filename="/home/thomas/glauron/ground.png"
   inkscape:export-xdpi="90"
   inkscape:export-ydpi="90">
  <defs
     id="defs4" />
  <sodipodi:namedview
     id="base"
     pagecolor="#ffffff"
     bordercolor="#666666"
     borderopacity="1.0"
     inkscape:pageopacity="0.0"
     inkscape:pageshadow="2"
     inkscape:zoom="2.8"
     inkscape:cx="90.572904"
     inkscape:cy="124.72209"
     inkscape:document-units="px"
     inkscape:current-layer="layer1"
     showgrid="true"
     units="px"
     inkscape:snap-bbox="true"
     inkscape:bbox-nodes="true"
     inkscape:object-nodes="true"
     inkscape:window-width="1920"
     inkscape:window-height="1181"
     inkscape:window-x="0"
     inkscape:window-y="19"
     inkscape:window-maximized="0"
     inkscape:snap-global="true">
    <inkscape:grid
       type="xygrid"
       id="grid4136"
       empspacing="10"
       spacingx="10"
       spacingy="9.9999997" />
  </sodipodi:namedview>
  <metadata
     id="metadata7">
    <rdf:RDF>
      <cc:Work
         rdf:about="">
        <dc:format>image/svg+xml</dc:format>
        <dc:type
           rdf:resource="http://purl.org/dc/dcmitype/StillImage" />
        <dc:title></dc:title>
      </cc:Work>
    </rdf:RDF>
  </metadata>
  <g
     inkscape:label="Layer 1"
     inkscape:groupmode="layer"
     id="layer1"
     transform="translate(0,-752.36223)">
    <path
       style="fill:#000000;fill-rule:evenodd;stroke:none;stroke-width:1px;stroke-linecap:butt;stroke-linejoin:miter;stroke-opacity:1"
       d="m 49.999999,802.36223 -49.999999,50 200,0 -50,-50 z"
       id="path4185"
       inkscape:connector-curvature="0" />
    <path
       inkscape:connector-curvature="0"
       id="path4187"
       d="M 49.999999,902.36223 -1.1111108e-7,952.36223 200,952.36223 l -50,-50 z"
       style="fill:#000000;fill-rule:evenodd;stroke:none;stroke-width:1px;stroke-linecap:butt;stroke-linejoin:miter;stroke-opacity:1" />
    <path
       style="fill:#000000;fill-rule:evenodd;stroke:none;stroke-width:1px;stroke-linecap:butt;stroke-linejoin:miter;stroke-opacity:1"
       d="M 49.999999,1002.3622 -2.2222216e-7,1052.3622 200,1052.3622 l -50,-50 z"
       id="path4189"
       inkscape:connector-curvature="0" />
    <path
       style="fill:none;fill-rule:evenodd;stroke:#000000;stroke-width:1px;stroke-linecap:butt;stroke-linejoin:miter;stroke-opacity:1"
       d="m 89.999998,792.36223 c 1.785715,-0.71429 3.57143,-1.42857 5.357145,-2.14286 0.119048,-0.11905 0.212776,-0.27052 0.357143,-0.35714 0.456527,-0.27392 0.977099,-0.43212 1.428571,-0.71429 1.009522,-0.63095 1.81648,-1.56471 2.857143,-2.14285 0.56041,-0.31135 1.19394,-0.46772 1.78571,-0.71429 1.6738,-0.69741 3.35362,-1.38299 5,-2.14286 0.7251,-0.33465 1.41585,-0.74096 2.14286,-1.07143 0.58363,-0.26528 1.26404,-0.34165 1.78572,-0.71428 0.34928,-0.24949 0.41077,-0.76792 0.71428,-1.07143 0.18823,-0.18823 0.52606,-0.16891 0.71429,-0.35714 0.18823,-0.18823 0.0909,-0.71429 0.35714,-0.71429 0.2381,0 0,0.47619 0,0.71429 0,0.23809 0.0577,0.4833 0,0.71428 -0.0646,0.25825 -0.30494,0.45326 -0.35714,0.71429 -0.07,0.35021 0.0981,0.72803 0,1.07143 -0.14626,0.51191 -0.58516,0.91207 -0.71429,1.42857 -0.11549,0.46197 0.11549,0.9666 0,1.42857 -0.12912,0.5165 -0.54593,0.9235 -0.71428,1.42857 -2.14436,6.43307 0.9716,-2.10069 -0.35715,3.21429 -0.12912,0.5165 -0.59879,0.90885 -0.71428,1.42857 -0.12913,0.58106 0,1.19048 0,1.78571 0,0.47619 0,0.95238 0,1.42857 0,0.2381 0,0.4762 0,0.71429 0,0.11905 0.066,0.25809 0,0.35714 -0.18678,0.28017 -0.52751,0.43412 -0.71429,0.71429 -0.066,0.0991 0,0.23809 0,0.35714 0,0.2381 0.10648,0.50133 0,0.71429 -0.17544,0.35088 -0.65789,-0.46993 -0.35714,0.35714 0.43817,1.20499 0.95238,2.38095 1.42857,3.57143"
       id="path4191"
       inkscape:connector-curvature="0" />
    <path
       style="fill:none;fill-rule:evenodd;stroke:#000000;stroke-width:1px;stroke-linecap:butt;stroke-linejoin:miter;stroke-opacity:1"
       d="m 99.999998,882.36223 c -1.071428,1.07143 -2.073959,2.2165 -3.214284,3.21429 -0.200334,0.17529 0.168912,-0.52606 0.357143,-0.71429 0.188231,-0.18823 0.476191,-0.2381 0.714286,-0.35714 0.357143,-0.2381 0.767916,-0.41078 1.071429,-0.71429 0.420896,-0.4209 0.539029,-1.16237 1.071426,-1.42857 0.532402,-0.2662 1.204652,0.12913 1.785712,0 0.51972,-0.11549 0.95239,-0.47619 1.42858,-0.71429 0.47619,-0.23809 0.95238,-0.47619 1.42857,-0.71428 0.82076,-0.41038 0.44808,-0.35714 1.07143,-0.35714 0.11904,0 0.2442,-0.0377 0.35714,0 1.42857,0.47619 0.11905,0.11904 1.07143,1.07142 0.18823,0.18823 0.52605,0.16892 0.71428,0.35715 0.0229,0.0229 0.66994,1.36204 0.71429,1.42857 0.28016,0.42025 0.76838,0.66737 1.07143,1.07143 0.31944,0.42591 0.39484,1.00265 0.71428,1.42857 0.20203,0.26937 0.5637,0.41311 0.71429,0.71428 0.10648,0.21296 0,0.47619 0,0.71429 0,0.0999 0.0279,1.72984 0,1.78571 -0.35714,0.71429 -0.71429,0.53572 -1.07143,1.07143 -0.60606,0.90909 0.0108,0.63853 -1.07143,1.07143 -0.34953,0.13982 -0.7254,0.20885 -1.07143,0.35714 -0.48935,0.20973 -0.93007,0.52735 -1.42857,0.71429 -0.45959,0.17235 -0.95842,0.2161 -1.42857,0.35714 -1.44234,0.4327 -2.85714,0.95238 -4.28571,1.42857 -0.71429,0.2381 -1.416468,0.51618 -2.142861,0.71429 -0.585637,0.15972 -1.242774,0.0857 -1.785715,0.35714 -0.238095,0.11905 -0.135652,0.56663 -0.357142,0.71429 -0.198108,0.13207 -0.488409,-0.0753 -0.714286,0 -0.609681,0.20323 -0.238095,0.35714 -0.357143,0.71428 -0.12014,0.36042 -0.563058,0.86552 -0.357143,1.07143 0.08418,0.0842 0.238095,0 0.357143,0 0.119048,0 0.238095,0 0.357143,0 1.071428,0 2.142857,0 3.214286,0 4.212038,0 -1.396582,-0.11549 2.857138,0.35715 0.5916,0.0657 1.19048,0 1.78572,0 1.42857,0 2.85714,0 4.28571,0 1.66667,0 3.33334,0 5,0 0.47619,0 0.97682,-0.15059 1.42857,0 0.31944,0.10647 0.43412,0.5275 0.71429,0.71428 0.0991,0.066 0.2381,0 0.35714,0 1.54762,1.19048 3.09524,2.38095 4.64286,3.57143"
       id="path4193"
       inkscape:connector-curvature="0" />
    <path
       style="fill:none;fill-rule:evenodd;stroke:#000000;stroke-width:1px;stroke-linecap:butt;stroke-linejoin:miter;stroke-opacity:1"
       d="m 89.999998,982.36223 c 1.364756,-1.00852 2.8666,-0.15441 4.285716,-0.35714 0.485913,-0.0694 0.941516,-0.29626 1.428572,-0.35715 0.472513,-0.0591 0.952381,0 1.428571,0 0.714286,0 1.428572,0 2.142857,0 0.246615,0 1.319986,-0.0543 1.428576,0 0.15058,0.0753 0.23809,0.2381 0.35714,0.35715 0.23809,0.23809 0.47619,0.47619 0.71428,0.71428 0.11905,0.11905 0.21706,0.26376 0.35715,0.35715 0.22149,0.14766 0.56662,0.13565 0.71428,0.35714 0.13207,0.19811 -0.0753,0.48841 0,0.71428 0.0532,0.15972 0.28185,0.20656 0.35715,0.35715 0.0532,0.10648 -0.0376,0.2442 0,0.35714 0.16835,0.50508 0.54592,0.9235 0.71428,1.42857 0.0377,0.11294 0,0.2381 0,0.35714 0,0.35715 0,0.71429 0,1.07143 0,0.47619 0,0.95238 0,1.42857 0,0.11905 0.0377,0.24421 0,0.35715 -0.0842,0.25254 -0.23809,0.47619 -0.35714,0.71428 -0.11905,0.2381 -0.19742,0.50133 -0.35714,0.71429 -0.20203,0.26937 -0.47619,0.47619 -0.71429,0.71428 -0.11905,0.11905 -0.2381,0.2381 -0.35714,0.35715 -0.11905,0.11904 -0.19743,0.3039 -0.35715,0.35714 -0.22587,0.0753 -0.47619,0 -0.71428,0 -0.2381,0.2381 -0.43412,0.52751 -0.71429,0.71429 -0.0991,0.066 -0.23809,0 -0.35714,0 -0.238095,0 -0.47619,0 -0.714286,0 -1.190476,0 -2.380952,0 -3.571428,0 -0.833333,0 -1.666667,0 -2.5,0 -0.238095,0 -0.501327,-0.10648 -0.714286,0 -0.106479,0.0532 -0.08418,0.27296 0,0.35714 0.08418,0.0842 0.272964,-0.0842 0.357143,0 0.08418,0.0842 -0.106479,0.3039 0,0.35714 0.212959,0.10648 0.488409,-0.0753 0.714286,0 0.319438,0.10648 0.394847,0.60781 0.714285,0.71429 0.225877,0.0753 0.501327,-0.10648 0.714286,0 0.217803,0.1089 1.190191,1.34911 1.428572,1.42857 0.225877,0.0753 0.545927,-0.16836 0.714285,0 0.168359,0.16836 0,0.47619 0,0.71428 0,0.18676 0.04695,1.33467 0,1.42858 -0.07529,0.15058 -0.238095,0.23809 -0.357143,0.35714 -0.119047,0.11905 -0.217059,0.26375 -0.357142,0.35714 -0.442982,0.29532 -1.002654,0.39485 -1.428572,0.71429 -0.269374,0.20203 -0.444912,0.51221 -0.714286,0.71431 -0.212958,0.1597 -0.501326,0.1974 -0.714285,0.3571 -0.269374,0.202 -0.444912,0.5123 -0.714286,0.7143 -0.212959,0.1597 -0.456035,0.2926 -0.714286,0.3571 -0.271595,0.068 -1.486646,0 -1.785714,0 -0.246615,0 -1.319987,0.054 -1.428571,0 -0.150585,-0.075 -0.197424,-0.3039 -0.357143,-0.3571 -0.225877,-0.075 -0.516179,0.1321 -0.714286,0 -0.221491,-0.1477 -0.168912,-0.5261 -0.357143,-0.7143 -0.08418,-0.084 -0.272963,0.084 -0.357143,0 -0.08418,-0.084 0.08418,-0.273 0,-0.3571 -0.08418,-0.084 -0.272963,0.084 -0.357143,0 -0.08418,-0.084 0.08418,-0.27299 0,-0.35717 -0.08418,-0.0842 -0.272963,0.0842 -0.357142,0 -0.178572,-0.17857 0.178571,-0.89286 0,-1.07143 -0.08418,-0.0842 -0.272964,0.0842 -0.357143,0 -0.168359,-0.16836 0.106479,-0.50133 0,-0.71428 -0.07529,-0.15059 -0.281851,-0.20656 -0.357143,-0.35715 -0.05324,-0.10648 0.08418,-0.27296 0,-0.35714 -0.08418,-0.0842 -0.272964,0.0842 -0.357143,0 -0.178571,-0.17857 0.178571,-0.89286 0,-1.07143 -0.08418,-0.0842 -0.272963,0.0842 -0.357143,0 -0.08418,-0.0842 0,-0.23809 0,-0.35714 0,-0.11905 -0.09687,-0.28795 0,-0.35714 1.612288,-1.15164 3.333332,-2.14286 4.999998,-3.21429"
       id="path4195"
       inkscape:connector-curvature="0" />
  </g>
</svg>
