<?xml version="1.0" encoding="UTF-8" standalone="no"?>
<!-- Created with Inkscape (http://www.inkscape.org/) -->

<svg
   xmlns:dc="http://purl.org/dc/elements/1.1/"
   xmlns:cc="http://creativecommons.org/ns#"
   xmlns:rdf="http://www.w3.org/1999/02/22-rdf-syntax-ns#"
   xmlns:svg="http://www.w3.org/2000/svg"
   xmlns="http://www.w3.org/2000/svg"
   xmlns:sodipodi="http://sodipodi.sourceforge.net/DTD/sodipodi-0.dtd"
   xmlns:inkscape="http://www.inkscape.org/namespaces/inkscape"
   width="600"
   height="100"
   viewBox="0 0 600 99.999997"
   id="svg2"
   version="1.1"
   inkscape:version="0.91 r13725"
   sodipodi:docname="ground.svg"
   inkscape:export-filename="/home/thomas/glauron/ground.png"
   inkscape:export-xdpi="90"
   inkscape:export-ydpi="90">
  <defs
     id="defs4" />
  <sodipodi:namedview
     id="base"
     pagecolor="#ffffff"
     bordercolor="#666666"
     borderopacity="1.0"
     inkscape:pageopacity="0.0"
     inkscape:pageshadow="2"
     inkscape:zoom="1.979899"
     inkscape:cx="281.89998"
     inkscape:cy="68.237917"
     inkscape:document-units="px"
     inkscape:current-layer="layer1"
     showgrid="true"
     units="px"
     inkscape:snap-bbox="true"
     inkscape:bbox-nodes="true"
     inkscape:object-nodes="true"
     inkscape:window-width="1920"
     inkscape:window-height="1181"
     inkscape:window-x="0"
     inkscape:window-y="19"
     inkscape:window-maximized="0"
     inkscape:snap-global="true">
    <inkscape:grid
       type="xygrid"
       id="grid4136"
       empspacing="10"
       spacingx="10"
       spacingy="9.9999997" />
  </sodipodi:namedview>
  <metadata
     id="metadata7">
    <rdf:RDF>
      <cc:Work
         rdf:about="">
        <dc:format>image/svg+xml</dc:format>
        <dc:type
           rdf:resource="http://purl.org/dc/dcmitype/StillImage" />
        <dc:title></dc:title>
      </cc:Work>
    </rdf:RDF>
  </metadata>
  <g
     inkscape:label="Layer 1"
     inkscape:groupmode="layer"
     id="layer1"
     transform="translate(0,-952.36223)">
    <path
       style="fill:#000000;fill-rule:evenodd;stroke:none;stroke-width:1px;stroke-linecap:butt;stroke-linejoin:miter;stroke-opacity:1"
       d="m 250,1002.3622 -50,50 200,0 -50,-50 c -11.00866,-2.0961 -15.21641,1.0652 -23.21078,0.9008 -7.21119,-0.1483 -18.33526,-3.76788 -25.66124,-2.915 -8.26029,0.9616 -18.51513,3.6627 -28.80416,3.5979 -6.60504,-0.042 -14.05612,-0.4871 -22.32382,-1.5837 z"
       id="path4185"
       inkscape:connector-curvature="0"
       sodipodi:nodetypes="ccccsssc" />
    <path
       inkscape:connector-curvature="0"
       id="path4187"
       d="m 450,1002.3622 -50,50 200,0 -50,-50 c -7.03563,-0.9089 -13.48179,0.7939 -23.55328,0.4832 -8.29277,-0.2559 -20.0785,-2.6243 -27.69282,-2.4528 -12.93287,0.2914 -21.33999,1.4342 -31.60483,1.9218 -10.12198,0.4808 -6.65214,-0.9048 -17.14907,0.048 z"
       style="fill:#000000;fill-rule:evenodd;stroke:none;stroke-width:1px;stroke-linecap:butt;stroke-linejoin:miter;stroke-opacity:1"
       sodipodi:nodetypes="ccccsssc" />
    <path
       style="fill:#000000;fill-rule:evenodd;stroke:none;stroke-width:1px;stroke-linecap:butt;stroke-linejoin:miter;stroke-opacity:1"
       d="M 49.999999,1002.3622 -2.2222216e-7,1052.3622 200,1052.3622 l -50,-50 c -12.3697,-1.2308 -12.58822,-1.0382 -34.10712,0.3689 -8.63504,0.5647 -20.237465,-1.102 -31.427409,-1.2081 -13.113592,-0.1244 -25.794041,1.2276 -34.465472,0.8392 z"
       id="path4189"
       inkscape:connector-curvature="0"
       sodipodi:nodetypes="ccccssc" />
    <path
       style="opacity:1;fill:#000000;fill-opacity:1;stroke:none;stroke-width:1;stroke-linecap:butt;stroke-linejoin:miter;stroke-miterlimit:4;stroke-dasharray:none;stroke-opacity:1"
       d="m 276.9871,1004.343 c 0.17503,2.1092 -3.94227,2.0315 -9.45024,1.747 -5.50797,-0.2845 -5.96883,-1.2725 -6.38283,-3.3652 -0.44744,-2.2617 4.36043,-2.723 10.5225,-2.3141 5.48415,0.3639 5.04668,0.7522 5.31057,3.9323 z"
       id="path9930"
       inkscape:connector-curvature="0"
       sodipodi:nodetypes="sssss" />
    <path
       sodipodi:nodetypes="sssss"
       inkscape:connector-curvature="0"
       id="path9933"
       d="m 140.82069,1004.588 c 0.10411,2.1092 -2.34509,2.0314 -5.62153,1.747 -3.27644,-0.2845 -3.55059,-1.2725 -3.79685,-3.3652 -0.26617,-2.2618 2.59382,-2.723 6.25935,-2.3141 3.26228,0.3639 3.00204,0.7521 3.15903,3.9323 z"
       style="opacity:1;fill:#000000;fill-opacity:1;stroke:none;stroke-width:1;stroke-linecap:butt;stroke-linejoin:miter;stroke-miterlimit:4;stroke-dasharray:none;stroke-opacity:1" />
    <path
       style="opacity:1;fill:#000000;fill-opacity:1;stroke:none;stroke-width:1;stroke-linecap:butt;stroke-linejoin:miter;stroke-miterlimit:4;stroke-dasharray:none;stroke-opacity:1"
       d="m 124.42477,1003.7631 c -0.12775,2.588 2.87749,2.4927 6.89777,2.1436 4.02028,-0.3491 4.35667,-1.5614 4.65884,-4.1291 0.3266,-2.77525 -3.18269,-3.34125 -7.6804,-2.83953 -4.0029,0.44654 -3.68358,0.9229 -3.87621,4.82503 z"
       id="path9935"
       inkscape:connector-curvature="0"
       sodipodi:nodetypes="sssss" />
    <path
       sodipodi:nodetypes="sssss"
       inkscape:connector-curvature="0"
       id="path9937"
       d="m 286.86971,1002.0765 c 0.0213,-1.5162 -1.79914,-1.2836 -4.22972,-0.8433 -2.43057,0.4404 -2.60829,1.1669 -2.73585,2.6816 -0.13788,1.637 2.00264,1.7602 4.71945,1.2028 2.41792,-0.4962 2.21394,-0.7551 2.24612,-3.0411 z"
       style="opacity:1;fill:#000000;fill-opacity:1;stroke:none;stroke-width:1;stroke-linecap:butt;stroke-linejoin:miter;stroke-miterlimit:4;stroke-dasharray:none;stroke-opacity:1" />
    <path
       style="opacity:1;fill:#000000;fill-opacity:1;stroke:none;stroke-width:1;stroke-linecap:butt;stroke-linejoin:miter;stroke-miterlimit:4;stroke-dasharray:none;stroke-opacity:1"
       d="m 293.66153,1000.3581 c 0.0605,-1.21846 -2.38553,-1.08593 -5.654,-0.80468 -3.26846,0.28126 -3.52203,0.86008 -3.72491,2.07418 -0.21929,1.3121 2.64838,1.4753 6.30312,1.1084 3.25266,-0.3265 2.98457,-0.5407 3.07579,-2.3779 z"
       id="path9939"
       inkscape:connector-curvature="0"
       sodipodi:nodetypes="sssss" />
    <path
       sodipodi:nodetypes="sssss"
       inkscape:connector-curvature="0"
       id="path9941"
       d="m 110.70794,1009.2069 c 2.57565,0.177 2.6611,-1.7028 2.5542,-4.2258 -0.10689,-2.523 -1.29679,-2.7785 -3.84177,-3.0636 -2.75058,-0.3082 -3.52643,1.8613 -3.29587,4.6881 0.2052,2.5158 0.69989,2.3343 4.58344,2.6013 z"
       style="opacity:1;fill:#000000;fill-opacity:1;stroke:none;stroke-width:1;stroke-linecap:butt;stroke-linejoin:miter;stroke-miterlimit:4;stroke-dasharray:none;stroke-opacity:1" />
    <path
       style="opacity:1;fill:#000000;fill-opacity:1;stroke:none;stroke-width:1;stroke-linecap:butt;stroke-linejoin:miter;stroke-miterlimit:4;stroke-dasharray:none;stroke-opacity:1"
       d="m 106.16226,1006.9957 c 2.57565,0.177 2.6611,-1.7028 2.5542,-4.2257 -0.10689,-2.5231 -1.29679,-2.77864 -3.84177,-3.06379 -2.75058,-0.30819 -3.52643,1.86139 -3.29587,4.68819 0.2052,2.5158 0.69989,2.3344 4.58344,2.6013 z"
       id="path9943"
       inkscape:connector-curvature="0"
       sodipodi:nodetypes="sssss" />
    <path
       style="opacity:1;fill:#000000;fill-opacity:1;stroke:none;stroke-width:1;stroke-linecap:butt;stroke-linejoin:miter;stroke-miterlimit:4;stroke-dasharray:none;stroke-opacity:1"
       d="m 101.61657,1000.7942 c 2.57565,-0.177 2.6611,1.7028 2.5542,4.2257 -0.10689,2.523 -1.29679,2.7786 -3.84177,3.0637 -2.750583,0.3081 -3.526433,-1.8614 -3.295873,-4.6881 0.2052,-2.5158 0.69989,-2.3344 4.583443,-2.6013 z"
       id="path9945"
       inkscape:connector-curvature="0"
       sodipodi:nodetypes="sssss" />
    <path
       style="opacity:1;fill:#000000;fill-opacity:1;stroke:none;stroke-width:1;stroke-linecap:butt;stroke-linejoin:miter;stroke-miterlimit:4;stroke-dasharray:none;stroke-opacity:1"
       d="m 83.875091,1001.7948 c 0.05236,1.0744 1.992782,0.9349 4.576917,0.6565 2.584126,-0.2784 2.738596,-0.7909 2.800181,-1.8629 0.06659,-1.15836 -2.23449,-1.27545 -5.119762,-0.91803 -2.567765,0.31806 -2.336214,0.50443 -2.257336,2.12443 z"
       id="path9947"
       inkscape:connector-curvature="0"
       sodipodi:nodetypes="sssss" />
    <path
       style="opacity:1;fill:#000000;fill-opacity:1;stroke:none;stroke-width:1;stroke-linecap:butt;stroke-linejoin:miter;stroke-miterlimit:4;stroke-dasharray:none;stroke-opacity:1"
       d="m 536.21345,1004.2899 -1.92823,0.2451 c -0.27638,-2.2918 0.27668,-4.73289 1.8148,-7.35134 -0.29042,2.43967 -1.01787,4.97374 0.11343,7.10624 z"
       id="path9949"
       inkscape:connector-curvature="0"
       sodipodi:nodetypes="cccc" />
    <path
       sodipodi:nodetypes="cccc"
       inkscape:connector-curvature="0"
       id="path9951"
       d="m 536.10418,1005.2962 -1.93357,-0.1897 c 0.16709,-2.3041 1.17429,-4.5695 3.17924,-6.78906 -0.74994,2.32256 -1.94554,4.64016 -1.24567,6.97876 z"
       style="opacity:1;fill:#000000;fill-opacity:1;stroke:none;stroke-width:1;stroke-linecap:butt;stroke-linejoin:miter;stroke-miterlimit:4;stroke-dasharray:none;stroke-opacity:1" />
    <path
       style="opacity:1;fill:#000000;fill-opacity:1;stroke:none;stroke-width:1;stroke-linecap:butt;stroke-linejoin:miter;stroke-miterlimit:4;stroke-dasharray:none;stroke-opacity:1"
       d="m 536.10612,1004.9583 -1.78966,0.8131 c -0.85399,-2.119 -0.94944,-4.6301 -0.144,-7.60661 0.3474,2.43101 0.29917,5.08361 1.93366,6.79351 z"
       id="path9953"
       inkscape:connector-curvature="0"
       sodipodi:nodetypes="cccc" />
    <path
       sodipodi:nodetypes="cccc"
       inkscape:connector-curvature="0"
       id="path9955"
       d="m 486.6787,1002.3131 -3.21908,0.3062 c -0.4614,-2.86361 0.4619,-5.91384 3.02972,-9.18565 -0.48485,3.04843 -1.69929,6.21484 0.18936,8.87945 z"
       style="opacity:1;fill:#000000;fill-opacity:1;stroke:none;stroke-width:1;stroke-linecap:butt;stroke-linejoin:miter;stroke-miterlimit:4;stroke-dasharray:none;stroke-opacity:1" />
    <path
       style="opacity:1;fill:#000000;fill-opacity:1;stroke:none;stroke-width:1;stroke-linecap:butt;stroke-linejoin:miter;stroke-miterlimit:4;stroke-dasharray:none;stroke-opacity:1"
       d="m 487.28544,1003.5705 -3.22799,-0.2371 c 0.27893,-2.879 1.9604,-5.70971 5.30758,-8.48306 -1.252,2.90206 -3.24798,5.79796 -2.07959,8.72016 z"
       id="path9957"
       inkscape:connector-curvature="0"
       sodipodi:nodetypes="cccc" />
    <path
       sodipodi:nodetypes="cccc"
       inkscape:connector-curvature="0"
       id="path9959"
       d="m 485.36312,1003.1482 -2.98775,1.0161 c -1.42569,-2.6478 -1.58504,-5.78542 -0.2404,-9.5047 0.57997,3.03755 0.49946,6.3521 3.22815,8.4886 z"
       style="opacity:1;fill:#000000;fill-opacity:1;stroke:none;stroke-width:1;stroke-linecap:butt;stroke-linejoin:miter;stroke-miterlimit:4;stroke-dasharray:none;stroke-opacity:1" />
    <path
       sodipodi:nodetypes="cccc"
       inkscape:connector-curvature="0"
       id="path9961"
       d="m 506.51598,1001.3096 -2.25612,0.2654 c -0.32338,-2.48238 0.32373,-5.12653 2.12341,-7.96277 -0.33981,2.6426 -1.19096,5.38746 0.13271,7.69737 z"
       style="opacity:1;fill:#000000;fill-opacity:1;stroke:none;stroke-width:1;stroke-linecap:butt;stroke-linejoin:miter;stroke-miterlimit:4;stroke-dasharray:none;stroke-opacity:1" />
    <path
       style="opacity:1;fill:#000000;fill-opacity:1;stroke:none;stroke-width:1;stroke-linecap:butt;stroke-linejoin:miter;stroke-miterlimit:4;stroke-dasharray:none;stroke-opacity:1"
       d="m 506.38813,1002.3996 -2.26236,-0.2056 c 0.1955,-2.49568 1.37397,-4.94954 3.71986,-7.35369 -0.87747,2.51572 -2.27637,5.02606 -1.4575,7.55929 z"
       id="path9963"
       inkscape:connector-curvature="0"
       sodipodi:nodetypes="cccc" />
    <path
       sodipodi:nodetypes="cccc"
       inkscape:connector-curvature="0"
       id="path9965"
       d="m 506.3904,1002.0335 -2.09399,0.8808 c -0.99921,-2.2953 -1.11089,-5.0152 -0.16848,-8.23932 0.40648,2.63316 0.35004,5.50642 2.26247,7.35852 z"
       style="opacity:1;fill:#000000;fill-opacity:1;stroke:none;stroke-width:1;stroke-linecap:butt;stroke-linejoin:miter;stroke-miterlimit:4;stroke-dasharray:none;stroke-opacity:1" />
    <path
       style="opacity:1;fill:#000000;fill-opacity:1;stroke:none;stroke-width:1;stroke-linecap:butt;stroke-linejoin:miter;stroke-miterlimit:4;stroke-dasharray:none;stroke-opacity:1"
       d="m 510.72739,1003.4766 -2.25862,-0.2433 c 0.23716,-2.4921 1.45647,-4.92594 3.84219,-7.29056 -0.91937,2.50071 -2.36001,4.98736 -1.58357,7.53386 z"
       id="path9967"
       inkscape:connector-curvature="0"
       sodipodi:nodetypes="cccc" />
    <path
       sodipodi:nodetypes="cccc"
       inkscape:connector-curvature="0"
       id="path9969"
       d="m 510.89592,1004.5108 -2.15989,-0.7038 c 0.74599,-2.3897 2.44099,-4.51973 5.26306,-6.34155 -1.4153,2.25737 -3.33777,4.39345 -3.10317,7.04535 z"
       style="opacity:1;fill:#000000;fill-opacity:1;stroke:none;stroke-width:1;stroke-linecap:butt;stroke-linejoin:miter;stroke-miterlimit:4;stroke-dasharray:none;stroke-opacity:1" />
    <path
       style="opacity:1;fill:#000000;fill-opacity:1;stroke:none;stroke-width:1;stroke-linecap:butt;stroke-linejoin:miter;stroke-miterlimit:4;stroke-dasharray:none;stroke-opacity:1"
       d="m 509.9974,1004.1544 -2.23748,0.3927 c -0.46336,-2.4601 0.033,-5.13661 1.6693,-8.07016 -0.18969,2.65759 -0.88412,5.44626 0.56818,7.67746 z"
       id="path9971"
       inkscape:connector-curvature="0"
       sodipodi:nodetypes="cccc" />
    <path
       sodipodi:nodetypes="cccc"
       inkscape:connector-curvature="0"
       id="path9985"
       d="m 292.84166,1005.0521 -1.69344,-0.8022 c 0.86034,-1.8771 2.47004,-3.4425 4.96968,-4.63789 -1.3942,1.69889 -3.19058,3.24539 -3.2761,5.43979 z"
       style="opacity:1;fill:#000000;fill-opacity:1;stroke:none;stroke-width:1;stroke-linecap:butt;stroke-linejoin:miter;stroke-miterlimit:4;stroke-dasharray:none;stroke-opacity:1" />
    <path
       style="opacity:1;fill:#000000;fill-opacity:1;stroke:none;stroke-width:1;stroke-linecap:butt;stroke-linejoin:miter;stroke-miterlimit:4;stroke-dasharray:none;stroke-opacity:1"
       d="m 293.49941,1005.0444 -1.84335,-0.3366 c 0.34518,-2.0358 1.49486,-3.9645 3.59996,-5.7661 -0.90698,2.0019 -2.2419,3.9606 -1.75655,6.1024 z"
       id="path9987"
       inkscape:connector-curvature="0"
       sodipodi:nodetypes="cccc" />
    <path
       style="opacity:1;fill:#000000;fill-opacity:1;stroke:none;stroke-width:1;stroke-linecap:butt;stroke-linejoin:miter;stroke-miterlimit:4;stroke-dasharray:none;stroke-opacity:1"
       d="m 261.51165,1006.6321 1.66361,-0.8624 c -0.92705,-1.845 -2.59181,-3.3518 -5.13269,-4.4568 1.45419,1.6478 3.30483,3.1289 3.46893,5.3189 z"
       id="path9989"
       inkscape:connector-curvature="0"
       sodipodi:nodetypes="cccc" />
    <path
       sodipodi:nodetypes="cccc"
       inkscape:connector-curvature="0"
       id="path9991"
       d="m 260.85405,1005.764 1.83011,-0.4023 c -0.41792,-2.0222 -1.63598,-3.9085 -3.80427,-5.63349 0.97813,1.96809 2.38238,3.87769 1.97408,6.03549 z"
       style="opacity:1;fill:#000000;fill-opacity:1;stroke:none;stroke-width:1;stroke-linecap:butt;stroke-linejoin:miter;stroke-miterlimit:4;stroke-dasharray:none;stroke-opacity:1" />
    <path
       sodipodi:nodetypes="cccc"
       inkscape:connector-curvature="0"
       id="path9993"
       d="m 277.48351,1008.2545 -3.05573,-0.053 c 0.0411,-2.3751 1.40572,-4.772 4.34213,-7.1949 -0.95498,2.4367 -2.61052,4.9009 -1.2864,7.248 z"
       style="opacity:1;fill:#000000;fill-opacity:1;stroke:none;stroke-width:1;stroke-linecap:butt;stroke-linejoin:miter;stroke-miterlimit:4;stroke-dasharray:none;stroke-opacity:1" />
  </g>
</svg>
