<?xml version="1.0" encoding="UTF-8" standalone="no"?>
<!-- Created with Inkscape (http://www.inkscape.org/) -->

<svg
   xmlns:dc="http://purl.org/dc/elements/1.1/"
   xmlns:cc="http://creativecommons.org/ns#"
   xmlns:rdf="http://www.w3.org/1999/02/22-rdf-syntax-ns#"
   xmlns:svg="http://www.w3.org/2000/svg"
   xmlns="http://www.w3.org/2000/svg"
   xmlns:sodipodi="http://sodipodi.sourceforge.net/DTD/sodipodi-0.dtd"
   xmlns:inkscape="http://www.inkscape.org/namespaces/inkscape"
   width="200"
   height="300"
   viewBox="0 0 200 299.99999"
   id="svg2"
   version="1.1"
   inkscape:version="0.91 r13725"
   sodipodi:docname="ground.svg"
   inkscape:export-filename="/home/thomas/glauron/ground.png"
   inkscape:export-xdpi="90"
   inkscape:export-ydpi="90">
  <defs
     id="defs4" />
  <sodipodi:namedview
     id="base"
     pagecolor="#ffffff"
     bordercolor="#666666"
     borderopacity="1.0"
     inkscape:pageopacity="0.0"
     inkscape:pageshadow="2"
     inkscape:zoom="5.6"
     inkscape:cx="77.811285"
     inkscape:cy="126.7808"
     inkscape:document-units="px"
     inkscape:current-layer="layer1"
     showgrid="true"
     units="px"
     inkscape:snap-bbox="true"
     inkscape:bbox-nodes="true"
     inkscape:object-nodes="true"
     inkscape:window-width="1920"
     inkscape:window-height="1181"
     inkscape:window-x="0"
     inkscape:window-y="19"
     inkscape:window-maximized="0"
     inkscape:snap-global="false">
    <inkscape:grid
       type="xygrid"
       id="grid4136"
       empspacing="10"
       spacingx="10"
       spacingy="9.9999997" />
  </sodipodi:namedview>
  <metadata
     id="metadata7">
    <rdf:RDF>
      <cc:Work
         rdf:about="">
        <dc:format>image/svg+xml</dc:format>
        <dc:type
           rdf:resource="http://purl.org/dc/dcmitype/StillImage" />
        <dc:title />
      </cc:Work>
    </rdf:RDF>
  </metadata>
  <g
     inkscape:label="Layer 1"
     inkscape:groupmode="layer"
     id="layer1"
     transform="translate(0,-752.36223)">
    <path
       style="fill:#000000;fill-rule:evenodd;stroke:none;stroke-width:1px;stroke-linecap:butt;stroke-linejoin:miter;stroke-opacity:1"
       d="m 49.999999,802.36223 -49.999999,50 200,0 -50,-50 c -11.00866,-2.0961 -15.21641,1.06515 -23.21078,0.90075 -7.21119,-0.1483 -18.33526,-3.76786 -25.66124,-2.91501 -8.260289,0.96162 -18.515127,3.66274 -28.804155,3.59794 -6.605048,-0.0416 -14.056129,-0.48713 -22.323826,-1.58368 z"
       id="path4185"
       inkscape:connector-curvature="0"
       sodipodi:nodetypes="ccccsssc" />
    <path
       inkscape:connector-curvature="0"
       id="path4187"
       d="M 49.999999,902.36223 -1.1111108e-7,952.36223 200,952.36223 l -50,-50 c -7.03563,-0.9089 -13.48179,0.79388 -23.55328,0.48316 -8.29277,-0.25584 -20.0785,-2.62433 -27.692816,-2.45276 -12.932873,0.29142 -21.339998,1.43417 -31.604837,1.92176 -10.121976,0.48081 -6.65214,-0.90479 -17.149068,0.0478 z"
       style="fill:#000000;fill-rule:evenodd;stroke:none;stroke-width:1px;stroke-linecap:butt;stroke-linejoin:miter;stroke-opacity:1"
       sodipodi:nodetypes="ccccsssc" />
    <path
       style="fill:#000000;fill-rule:evenodd;stroke:none;stroke-width:1px;stroke-linecap:butt;stroke-linejoin:miter;stroke-opacity:1"
       d="M 49.999999,1002.3622 -2.2222216e-7,1052.3622 200,1052.3622 l -50,-50 c -12.3697,-1.2308 -12.58822,-1.0382 -34.10712,0.3689 -8.63504,0.5647 -20.237465,-1.102 -31.427409,-1.2081 -13.113592,-0.1244 -25.794041,1.2276 -34.465472,0.8392 z"
       id="path4189"
       inkscape:connector-curvature="0"
       sodipodi:nodetypes="ccccssc" />
    <path
       style="opacity:1;fill:#000000;fill-opacity:1;stroke:none;stroke-width:1;stroke-linecap:butt;stroke-linejoin:miter;stroke-miterlimit:4;stroke-dasharray:none;stroke-opacity:1"
       d="m 76.987103,804.34302 c 0.175023,2.1092 -3.942274,2.03149 -9.450243,1.747 -5.507968,-0.28449 -5.968835,-1.27249 -6.382827,-3.36517 -0.447441,-2.26174 4.360425,-2.72302 10.522497,-2.31413 5.484147,0.36392 5.046679,0.75215 5.310573,3.9323 z"
       id="path9930"
       inkscape:connector-curvature="0"
       sodipodi:nodetypes="sssss" />
    <path
       sodipodi:nodetypes="sssss"
       inkscape:connector-curvature="0"
       id="path9933"
       d="m 136.275,905.59301 c 0.10411,2.1092 -2.34509,2.03149 -5.62153,1.747 -3.27644,-0.28449 -3.55059,-1.27249 -3.79685,-3.36517 -0.26617,-2.26174 2.59382,-2.72302 6.25935,-2.31413 3.26228,0.36392 3.00204,0.75215 3.15903,3.9323 z"
       style="opacity:1;fill:#000000;fill-opacity:1;stroke:none;stroke-width:1;stroke-linecap:butt;stroke-linejoin:miter;stroke-miterlimit:4;stroke-dasharray:none;stroke-opacity:1" />
    <path
       style="opacity:1;fill:#000000;fill-opacity:1;stroke:none;stroke-width:1;stroke-linecap:butt;stroke-linejoin:miter;stroke-miterlimit:4;stroke-dasharray:none;stroke-opacity:1"
       d="m 119.87908,904.76816 c -0.12775,2.58804 2.87749,2.49269 6.89777,2.14361 4.02028,-0.34907 4.35667,-1.56138 4.65884,-4.12915 0.3266,-2.77522 -3.18269,-3.34122 -7.6804,-2.8395 -4.0029,0.44654 -3.68358,0.9229 -3.87621,4.82504 z"
       id="path9935"
       inkscape:connector-curvature="0"
       sodipodi:nodetypes="sssss" />
    <path
       sodipodi:nodetypes="sssss"
       inkscape:connector-curvature="0"
       id="path9937"
       d="m 86.869706,802.07648 c 0.02134,-1.51622 -1.799139,-1.28359 -4.229715,-0.84323 -2.430575,0.44035 -2.608288,1.16688 -2.735854,2.68156 -0.137872,1.63703 2.002642,1.76024 4.719451,1.20277 2.417919,-0.49615 2.213937,-0.75503 2.246118,-3.0411 z"
       style="opacity:1;fill:#000000;fill-opacity:1;stroke:none;stroke-width:1;stroke-linecap:butt;stroke-linejoin:miter;stroke-miterlimit:4;stroke-dasharray:none;stroke-opacity:1" />
    <path
       style="opacity:1;fill:#000000;fill-opacity:1;stroke:none;stroke-width:1;stroke-linecap:butt;stroke-linejoin:miter;stroke-miterlimit:4;stroke-dasharray:none;stroke-opacity:1"
       d="m 73.48864,901.2421 c 0.10411,-1.21552 -2.34509,-1.17073 -5.62153,-1.00678 -3.27644,0.16395 -3.55059,0.73332 -3.79685,1.93932 -0.26617,1.30343 2.59382,1.56926 6.25935,1.33362 3.26228,-0.20972 3.00204,-0.43346 3.15903,-2.26616 z"
       id="path9939"
       inkscape:connector-curvature="0"
       sodipodi:nodetypes="sssss" />
    <path
       sodipodi:nodetypes="sssss"
       inkscape:connector-curvature="0"
       id="path9941"
       d="m 110.70794,1009.2069 c 2.57565,0.177 2.6611,-1.7028 2.5542,-4.2258 -0.10689,-2.523 -1.29679,-2.7785 -3.84177,-3.0636 -2.75058,-0.3082 -3.52643,1.8613 -3.29587,4.6881 0.2052,2.5158 0.69989,2.3343 4.58344,2.6013 z"
       style="opacity:1;fill:#000000;fill-opacity:1;stroke:none;stroke-width:1;stroke-linecap:butt;stroke-linejoin:miter;stroke-miterlimit:4;stroke-dasharray:none;stroke-opacity:1" />
    <path
       style="opacity:1;fill:#000000;fill-opacity:1;stroke:none;stroke-width:1;stroke-linecap:butt;stroke-linejoin:miter;stroke-miterlimit:4;stroke-dasharray:none;stroke-opacity:1"
       d="m 106.16226,1006.9957 c 2.57565,0.177 2.6611,-1.7028 2.5542,-4.2257 -0.10689,-2.5231 -1.29679,-2.77864 -3.84177,-3.06379 -2.75058,-0.30819 -3.52643,1.86139 -3.29587,4.68819 0.2052,2.5158 0.69989,2.3344 4.58344,2.6013 z"
       id="path9943"
       inkscape:connector-curvature="0"
       sodipodi:nodetypes="sssss" />
    <path
       style="opacity:1;fill:#000000;fill-opacity:1;stroke:none;stroke-width:1;stroke-linecap:butt;stroke-linejoin:miter;stroke-miterlimit:4;stroke-dasharray:none;stroke-opacity:1"
       d="m 101.61657,1000.7942 c 2.57565,-0.177 2.6611,1.7028 2.5542,4.2257 -0.10689,2.523 -1.29679,2.7786 -3.84177,3.0637 -2.750583,0.3081 -3.526433,-1.8614 -3.295873,-4.6881 0.2052,-2.5158 0.69989,-2.3344 4.583443,-2.6013 z"
       id="path9945"
       inkscape:connector-curvature="0"
       sodipodi:nodetypes="sssss" />
    <path
       style="opacity:1;fill:#000000;fill-opacity:1;stroke:none;stroke-width:1;stroke-linecap:butt;stroke-linejoin:miter;stroke-miterlimit:4;stroke-dasharray:none;stroke-opacity:1"
       d="m 83.875091,1001.7948 c 0.05236,1.0744 1.992782,0.9349 4.576917,0.6565 2.584126,-0.2784 2.738596,-0.7909 2.800181,-1.8629 0.06659,-1.15836 -2.23449,-1.27545 -5.119762,-0.91803 -2.567765,0.31806 -2.336214,0.50443 -2.257336,2.12443 z"
       id="path9947"
       inkscape:connector-curvature="0"
       sodipodi:nodetypes="sssss" />
    <path
       style="opacity:1;fill:#000000;fill-opacity:1;stroke:none;stroke-width:1;stroke-linecap:butt;stroke-linejoin:miter;stroke-miterlimit:4;stroke-dasharray:none;stroke-opacity:1"
       d="m 129.07059,803.93281 -1.92823,0.24505 c -0.27638,-2.29178 0.27668,-4.73289 1.8148,-7.35134 -0.29042,2.43967 -1.01787,4.97376 0.11343,7.10629 z"
       id="path9949"
       inkscape:connector-curvature="0"
       sodipodi:nodetypes="cccc" />
    <path
       sodipodi:nodetypes="cccc"
       inkscape:connector-curvature="0"
       id="path9951"
       d="m 128.96132,804.93911 -1.93357,-0.18976 c 0.16709,-2.30408 1.17429,-4.56952 3.17924,-6.78905 -0.74994,2.32254 -1.94554,4.64011 -1.24567,6.97881 z"
       style="opacity:1;fill:#000000;fill-opacity:1;stroke:none;stroke-width:1;stroke-linecap:butt;stroke-linejoin:miter;stroke-miterlimit:4;stroke-dasharray:none;stroke-opacity:1" />
    <path
       style="opacity:1;fill:#000000;fill-opacity:1;stroke:none;stroke-width:1;stroke-linecap:butt;stroke-linejoin:miter;stroke-miterlimit:4;stroke-dasharray:none;stroke-opacity:1"
       d="m 128.96326,804.60115 -1.78966,0.81314 c -0.85399,-2.11905 -0.94944,-4.63008 -0.144,-7.60664 0.3474,2.43097 0.29917,5.08358 1.93366,6.7935 z"
       id="path9953"
       inkscape:connector-curvature="0"
       sodipodi:nodetypes="cccc" />
    <path
       sodipodi:nodetypes="cccc"
       inkscape:connector-curvature="0"
       id="path9955"
       d="m 115.25013,803.7417 -3.21908,0.30619 c -0.4614,-2.86363 0.4619,-5.91386 3.02972,-9.18567 -0.48485,3.04843 -1.69929,6.21484 0.18936,8.87948 z"
       style="opacity:1;fill:#000000;fill-opacity:1;stroke:none;stroke-width:1;stroke-linecap:butt;stroke-linejoin:miter;stroke-miterlimit:4;stroke-dasharray:none;stroke-opacity:1" />
    <path
       style="opacity:1;fill:#000000;fill-opacity:1;stroke:none;stroke-width:1;stroke-linecap:butt;stroke-linejoin:miter;stroke-miterlimit:4;stroke-dasharray:none;stroke-opacity:1"
       d="m 115.85687,804.9991 -3.22799,-0.23711 c 0.27893,-2.87901 1.9604,-5.70973 5.30758,-8.48308 -1.252,2.90206 -3.24798,5.79793 -2.07959,8.72019 z"
       id="path9957"
       inkscape:connector-curvature="0"
       sodipodi:nodetypes="cccc" />
    <path
       sodipodi:nodetypes="cccc"
       inkscape:connector-curvature="0"
       id="path9959"
       d="m 113.93455,804.57682 -2.98775,1.01603 c -1.42569,-2.64781 -1.58504,-5.7854 -0.2404,-9.50468 0.57997,3.03755 0.49946,6.35206 3.22815,8.48865 z"
       style="opacity:1;fill:#000000;fill-opacity:1;stroke:none;stroke-width:1;stroke-linecap:butt;stroke-linejoin:miter;stroke-miterlimit:4;stroke-dasharray:none;stroke-opacity:1" />
    <path
       sodipodi:nodetypes="cccc"
       inkscape:connector-curvature="0"
       id="path9961"
       d="m 106.51598,901.30959 -2.25612,0.26543 c -0.32338,-2.4824 0.32373,-5.12655 2.12341,-7.96279 -0.33981,2.6426 -1.19096,5.38746 0.13271,7.69736 z"
       style="opacity:1;fill:#000000;fill-opacity:1;stroke:none;stroke-width:1;stroke-linecap:butt;stroke-linejoin:miter;stroke-miterlimit:4;stroke-dasharray:none;stroke-opacity:1" />
    <path
       style="opacity:1;fill:#000000;fill-opacity:1;stroke:none;stroke-width:1;stroke-linecap:butt;stroke-linejoin:miter;stroke-miterlimit:4;stroke-dasharray:none;stroke-opacity:1"
       d="m 106.38813,902.39959 -2.26236,-0.20554 c 0.1955,-2.49573 1.37397,-4.94959 3.71986,-7.35374 -0.87747,2.51572 -2.27637,5.02606 -1.4575,7.55928 z"
       id="path9963"
       inkscape:connector-curvature="0"
       sodipodi:nodetypes="cccc" />
    <path
       sodipodi:nodetypes="cccc"
       inkscape:connector-curvature="0"
       id="path9965"
       d="m 106.3904,902.03352 -2.09399,0.88078 c -0.99921,-2.29531 -1.11089,-5.0152 -0.16848,-8.23932 0.40648,2.63316 0.35004,5.5064 2.26247,7.35854 z"
       style="opacity:1;fill:#000000;fill-opacity:1;stroke:none;stroke-width:1;stroke-linecap:butt;stroke-linejoin:miter;stroke-miterlimit:4;stroke-dasharray:none;stroke-opacity:1" />
    <path
       style="opacity:1;fill:#000000;fill-opacity:1;stroke:none;stroke-width:1;stroke-linecap:butt;stroke-linejoin:miter;stroke-miterlimit:4;stroke-dasharray:none;stroke-opacity:1"
       d="m 110.72739,903.47661 -2.25862,-0.2433 c 0.23716,-2.49211 1.45647,-4.92595 3.84219,-7.29057 -0.91937,2.50071 -2.36001,4.98733 -1.58357,7.53387 z"
       id="path9967"
       inkscape:connector-curvature="0"
       sodipodi:nodetypes="cccc" />
    <path
       sodipodi:nodetypes="cccc"
       inkscape:connector-curvature="0"
       id="path9969"
       d="m 110.89592,904.51083 -2.15989,-0.70385 c 0.74599,-2.38964 2.44099,-4.51971 5.26306,-6.34153 -1.4153,2.25737 -3.33777,4.39345 -3.10317,7.04538 z"
       style="opacity:1;fill:#000000;fill-opacity:1;stroke:none;stroke-width:1;stroke-linecap:butt;stroke-linejoin:miter;stroke-miterlimit:4;stroke-dasharray:none;stroke-opacity:1" />
    <path
       style="opacity:1;fill:#000000;fill-opacity:1;stroke:none;stroke-width:1;stroke-linecap:butt;stroke-linejoin:miter;stroke-miterlimit:4;stroke-dasharray:none;stroke-opacity:1"
       d="m 109.9974,904.15444 -2.23748,0.3927 c -0.46336,-2.46011 0.033,-5.13665 1.6693,-8.0702 -0.18969,2.65759 -0.88412,5.44622 0.56818,7.6775 z"
       id="path9971"
       inkscape:connector-curvature="0"
       sodipodi:nodetypes="cccc" />
    <path
       sodipodi:nodetypes="cccc"
       inkscape:connector-curvature="0"
       id="path9973"
       d="m 144.13653,1006.7448 -3.03571,0.3572 c -0.43512,-3.3402 0.43559,-6.898 2.85714,-10.71433 -0.45723,3.55573 -1.60249,7.24903 0.17857,10.35713 z"
       style="opacity:1;fill:#000000;fill-opacity:1;stroke:none;stroke-width:1;stroke-linecap:butt;stroke-linejoin:miter;stroke-miterlimit:4;stroke-dasharray:none;stroke-opacity:1" />
    <path
       style="opacity:1;fill:#000000;fill-opacity:1;stroke:none;stroke-width:1;stroke-linecap:butt;stroke-linejoin:miter;stroke-miterlimit:4;stroke-dasharray:none;stroke-opacity:1"
       d="m 144.05379,1007.3186 -3.04411,-0.2766 c 0.26305,-3.3581 1.84874,-6.6599 5.00524,-9.89475 -1.18067,3.38495 -3.06296,6.76275 -1.96113,10.17135 z"
       id="path9975"
       inkscape:connector-curvature="0"
       sodipodi:nodetypes="cccc" />
    <path
       sodipodi:nodetypes="cccc"
       inkscape:connector-curvature="0"
       id="path9977"
       d="m 142.71756,1007.2725 -2.81756,1.1851 c -1.34448,-3.0884 -1.49475,-6.7482 -0.2267,-11.08639 0.54693,3.54309 0.471,7.40919 3.04426,9.90129 z"
       style="opacity:1;fill:#000000;fill-opacity:1;stroke:none;stroke-width:1;stroke-linecap:butt;stroke-linejoin:miter;stroke-miterlimit:4;stroke-dasharray:none;stroke-opacity:1" />
    <path
       style="opacity:1;fill:#000000;fill-opacity:1;stroke:none;stroke-width:1;stroke-linecap:butt;stroke-linejoin:miter;stroke-miterlimit:4;stroke-dasharray:none;stroke-opacity:1"
       d="m 64.318158,1002.8057 -1.87189,0.085 c -0.11969,-2.0614 0.56865,-4.19876 2.2166,-6.42617 -0.43542,2.1542 -1.29757,4.36227 -0.34471,6.34087 z"
       id="path9979"
       inkscape:connector-curvature="0"
       sodipodi:nodetypes="cccc" />
    <path
       sodipodi:nodetypes="cccc"
       inkscape:connector-curvature="0"
       id="path9981"
       d="m 65.833387,1003.437 -1.87189,0.085 c -0.11969,-2.0614 0.56865,-4.19871 2.2166,-6.42612 -0.43542,2.1542 -1.29757,4.36222 -0.34471,6.34082 z"
       style="opacity:1;fill:#000000;fill-opacity:1;stroke:none;stroke-width:1;stroke-linecap:butt;stroke-linejoin:miter;stroke-miterlimit:4;stroke-dasharray:none;stroke-opacity:1" />
    <path
       style="opacity:1;fill:#000000;fill-opacity:1;stroke:none;stroke-width:1;stroke-linecap:butt;stroke-linejoin:miter;stroke-miterlimit:4;stroke-dasharray:none;stroke-opacity:1"
       d="m 67.601154,1002.5531 -1.87189,0.085 c -0.11969,-2.0614 0.56865,-4.19869 2.2166,-6.4261 -0.43542,2.1542 -1.29757,4.3622 -0.34471,6.3408 z"
       id="path9983"
       inkscape:connector-curvature="0"
       sodipodi:nodetypes="cccc" />
    <path
       sodipodi:nodetypes="cccc"
       inkscape:connector-curvature="0"
       id="path9985"
       d="m 72.658952,905.02491 -1.663604,-0.86233 c 0.927045,-1.84507 2.59181,-3.35185 5.132682,-4.45687 -1.454185,1.64788 -3.304829,3.12899 -3.468928,5.31894 z"
       style="opacity:1;fill:#000000;fill-opacity:1;stroke:none;stroke-width:1;stroke-linecap:butt;stroke-linejoin:miter;stroke-miterlimit:4;stroke-dasharray:none;stroke-opacity:1" />
    <path
       style="opacity:1;fill:#000000;fill-opacity:1;stroke:none;stroke-width:1;stroke-linecap:butt;stroke-linejoin:miter;stroke-miterlimit:4;stroke-dasharray:none;stroke-opacity:1"
       d="m 73.316552,905.04077 -1.830105,-0.40238 c 0.417917,-2.02213 1.635973,-3.90845 3.804267,-5.63344 -0.978132,1.9681 -2.382378,3.87773 -1.974084,6.03553 z"
       id="path9987"
       inkscape:connector-curvature="0"
       sodipodi:nodetypes="cccc" />
    <path
       style="opacity:1;fill:#000000;fill-opacity:1;stroke:none;stroke-width:1;stroke-linecap:butt;stroke-linejoin:miter;stroke-miterlimit:4;stroke-dasharray:none;stroke-opacity:1"
       d="m 61.511652,806.63205 1.663604,-0.86233 c -0.927045,-1.84507 -2.59181,-3.35185 -5.132682,-4.45687 1.454185,1.64788 3.304829,3.12899 3.468928,5.31894 z"
       id="path9989"
       inkscape:connector-curvature="0"
       sodipodi:nodetypes="cccc" />
    <path
       sodipodi:nodetypes="cccc"
       inkscape:connector-curvature="0"
       id="path9991"
       d="m 60.854052,805.76403 1.830105,-0.40238 c -0.417917,-2.02213 -1.635973,-3.90845 -3.804267,-5.63344 0.978132,1.9681 2.382378,3.87773 1.974084,6.03553 z"
       style="opacity:1;fill:#000000;fill-opacity:1;stroke:none;stroke-width:1;stroke-linecap:butt;stroke-linejoin:miter;stroke-miterlimit:4;stroke-dasharray:none;stroke-opacity:1" />
    <path
       sodipodi:nodetypes="cccc"
       inkscape:connector-curvature="0"
       id="path9993"
       d="m 77.483506,808.25454 -3.055729,-0.0531 c 0.04113,-2.3751 1.40572,-4.77205 4.342129,-7.19493 -0.954979,2.43668 -2.61052,4.90088 -1.2864,7.24804 z"
       style="opacity:1;fill:#000000;fill-opacity:1;stroke:none;stroke-width:1;stroke-linecap:butt;stroke-linejoin:miter;stroke-miterlimit:4;stroke-dasharray:none;stroke-opacity:1" />
  </g>
</svg>
