<?xml version="1.0" encoding="UTF-8" standalone="no"?>
<!-- Created with Inkscape (http://www.inkscape.org/) -->

<svg
   xmlns:dc="http://purl.org/dc/elements/1.1/"
   xmlns:cc="http://creativecommons.org/ns#"
   xmlns:rdf="http://www.w3.org/1999/02/22-rdf-syntax-ns#"
   xmlns:svg="http://www.w3.org/2000/svg"
   xmlns="http://www.w3.org/2000/svg"
   xmlns:sodipodi="http://sodipodi.sourceforge.net/DTD/sodipodi-0.dtd"
   xmlns:inkscape="http://www.inkscape.org/namespaces/inkscape"
   width="60"
   height="20"
   viewBox="0 0 59.999998 19.999999"
   id="svg4136"
   version="1.1"
   inkscape:version="0.91 r13725"
   sodipodi:docname="sprites.svg"
   inkscape:export-filename="/home/thomas/glauron/sprites.png"
   inkscape:export-xdpi="90"
   inkscape:export-ydpi="90">
  <defs
     id="defs4138" />
  <sodipodi:namedview
     id="base"
     pagecolor="#ffffff"
     bordercolor="#666666"
     borderopacity="1.0"
     inkscape:pageopacity="0.0"
     inkscape:pageshadow="2"
     inkscape:zoom="15.839192"
     inkscape:cx="26.005643"
     inkscape:cy="16.271787"
     inkscape:document-units="px"
     inkscape:current-layer="layer1"
     showgrid="true"
     units="px"
     inkscape:snap-global="true"
     inkscape:snap-bbox="true"
     inkscape:bbox-paths="true"
     inkscape:bbox-nodes="true"
     inkscape:snap-center="true"
     inkscape:object-nodes="true"
     inkscape:window-width="1920"
     inkscape:window-height="1181"
     inkscape:window-x="0"
     inkscape:window-y="19"
     inkscape:window-maximized="0">
    <inkscape:grid
       type="xygrid"
       id="grid4684"
       spacingx="1.9999999"
       spacingy="1.9999999" />
  </sodipodi:namedview>
  <metadata
     id="metadata4141">
    <rdf:RDF>
      <cc:Work
         rdf:about="">
        <dc:format>image/svg+xml</dc:format>
        <dc:type
           rdf:resource="http://purl.org/dc/dcmitype/StillImage" />
        <dc:title></dc:title>
      </cc:Work>
    </rdf:RDF>
  </metadata>
  <g
     inkscape:label="Layer 1"
     inkscape:groupmode="layer"
     id="layer1"
     transform="translate(0,-1032.362)">
    <path
       style="opacity:1;fill:#ff0000;fill-opacity:1;stroke:none;stroke-width:2;stroke-linecap:square;stroke-linejoin:round;stroke-miterlimit:4;stroke-dasharray:none;stroke-opacity:1"
       d="m 13.462889,1034.7546 a 5.0000012,5.0000012 0 0 0 -3.4628905,1.4649 l 0,14.1426 7.0703115,-7.0723 a 5.0000012,5.0000012 0 0 0 0,-7.0703 5.0000012,5.0000012 0 0 0 -3.607421,-1.4649 z"
       id="path4692"
       inkscape:connector-curvature="0" />
    <path
       inkscape:connector-curvature="0"
       id="path4729"
       d="m 6.5371075,1034.7546 a 5.0000012,5.0000012 0 0 1 3.462891,1.4649 l 0,14.1426 -7.0703119,-7.0723 a 5.0000012,5.0000012 0 0 1 0,-7.0703 5.0000012,5.0000012 0 0 1 3.6074209,-1.4649 z"
       style="opacity:1;fill:#ff0000;fill-opacity:1;stroke:none;stroke-width:2;stroke-linecap:square;stroke-linejoin:round;stroke-miterlimit:4;stroke-dasharray:none;stroke-opacity:1" />
    <path
       style="opacity:1;fill:none;fill-opacity:1;stroke:#000000;stroke-width:2;stroke-linecap:square;stroke-linejoin:round;stroke-miterlimit:4;stroke-dasharray:none;stroke-opacity:0.50196078"
       d="m 6.5371095,1034.7546 a 5.0000018,5.0000018 0 0 0 -3.6074221,1.4649 5.0000018,5.0000018 0 0 0 0,7.0703 l 7.0703121,7.0723 7.0703115,-7.0723 a 5.0000018,5.0000018 0 0 0 0,-7.0703 5.0000018,5.0000018 0 0 0 -3.607421,-1.4649 5.0000018,5.0000018 0 0 0 -3.4628905,1.4649 5.0000018,5.0000018 0 0 0 -3.46289,-1.4649 z"
       id="path4731"
       inkscape:connector-curvature="0" />
    <path
       style="opacity:1;fill:#ff0000;fill-opacity:1;stroke:none;stroke-width:2;stroke-linecap:square;stroke-linejoin:round;stroke-miterlimit:4;stroke-dasharray:none;stroke-opacity:1"
       d="m 26.537104,1034.7547 a 5.0000012,5.0000012 0 0 1 3.462891,1.4648 l 0,14.1426 -7.070312,-7.0723 a 5.0000012,5.0000012 0 0 1 0,-7.0703 5.0000012,5.0000012 0 0 1 3.607421,-1.4648 z"
       id="path4740"
       inkscape:connector-curvature="0" />
    <path
       id="path4742"
       d="m 26.537106,1034.7547 a 5.0000018,5.0000018 0 0 0 -3.607422,1.4648 5.0000018,5.0000018 0 0 0 0,7.0703 l 7.070312,7.0723 7.070312,-7.0723 a 5.0000018,5.0000018 0 0 0 0,-7.0703 5.0000018,5.0000018 0 0 0 -3.607421,-1.4648 5.0000018,5.0000018 0 0 0 -3.462891,1.4648 5.0000018,5.0000018 0 0 0 -3.46289,-1.4648 z"
       style="opacity:1;fill:none;fill-opacity:1;stroke:#000000;stroke-width:2;stroke-linecap:square;stroke-linejoin:round;stroke-miterlimit:4;stroke-dasharray:none;stroke-opacity:0.50196078"
       inkscape:connector-curvature="0" />
    <path
       inkscape:connector-curvature="0"
       style="opacity:1;fill:none;fill-opacity:1;stroke:#000000;stroke-width:2;stroke-linecap:square;stroke-linejoin:round;stroke-miterlimit:4;stroke-dasharray:none;stroke-opacity:0.50196078"
       d="m 46.537103,1034.7547 a 5.0000018,5.0000018 0 0 0 -3.607422,1.4648 5.0000018,5.0000018 0 0 0 0,7.0703 l 7.070312,7.0723 7.070312,-7.0723 a 5.0000018,5.0000018 0 0 0 0,-7.0703 5.0000018,5.0000018 0 0 0 -3.607421,-1.4648 5.0000018,5.0000018 0 0 0 -3.462891,1.4648 5.0000018,5.0000018 0 0 0 -3.46289,-1.4648 z"
       id="path4750" />
  </g>
</svg>
