<?xml version="1.0" encoding="UTF-8" standalone="no"?>
<!-- Created with Inkscape (http://www.inkscape.org/) -->

<svg
   xmlns:dc="http://purl.org/dc/elements/1.1/"
   xmlns:cc="http://creativecommons.org/ns#"
   xmlns:rdf="http://www.w3.org/1999/02/22-rdf-syntax-ns#"
   xmlns:svg="http://www.w3.org/2000/svg"
   xmlns="http://www.w3.org/2000/svg"
   xmlns:xlink="http://www.w3.org/1999/xlink"
   xmlns:sodipodi="http://sodipodi.sourceforge.net/DTD/sodipodi-0.dtd"
   xmlns:inkscape="http://www.inkscape.org/namespaces/inkscape"
   width="100"
   height="100"
   viewBox="0 0 100 100"
   id="svg4199"
   version="1.1"
   inkscape:version="0.91 r13725"
   sodipodi:docname="logo100.svg"
   inkscape:export-filename="/home/thomas/glauron/logo100.png"
   inkscape:export-xdpi="90"
   inkscape:export-ydpi="90">
  <defs
     id="defs4201">
    <linearGradient
       inkscape:collect="always"
       id="linearGradient9918">
      <stop
         style="stop-color:#fff80a;stop-opacity:1"
         offset="0"
         id="stop9920" />
      <stop
         style="stop-color:#ff0000;stop-opacity:1"
         offset="1"
         id="stop9922" />
    </linearGradient>
    <radialGradient
       inkscape:collect="always"
       xlink:href="#linearGradient9918"
       id="radialGradient9924"
       cx="539.42511"
       cy="1021.9075"
       fx="539.42511"
       fy="1021.9075"
       r="2.53157"
       gradientTransform="matrix(1.3578771,-1.9776126,1.9756739,1.3565461,-2702.2857,672.91489)"
       gradientUnits="userSpaceOnUse" />
    <radialGradient
       inkscape:collect="always"
       xlink:href="#linearGradient10103"
       id="radialGradient10777"
       cx="600"
       cy="1102.3622"
       fx="600"
       fy="1102.3622"
       r="600"
       gradientTransform="matrix(0.26845313,0,0,0.17083378,-80.552537,860.72811)"
       gradientUnits="userSpaceOnUse" />
    <linearGradient
       inkscape:collect="always"
       id="linearGradient10103">
      <stop
         style="stop-color:#ffe601;stop-opacity:1"
         offset="0"
         id="stop10105" />
      <stop
         id="stop10781"
         offset="0.16938774"
         style="stop-color:#ffd604;stop-opacity:1" />
      <stop
         id="stop10779"
         offset="0.37346938"
         style="stop-color:#ff7a03;stop-opacity:1" />
      <stop
         style="stop-color:#ff2d06;stop-opacity:1"
         offset="0.53265309"
         id="stop10783" />
      <stop
         style="stop-color:#380061;stop-opacity:1"
         offset="1"
         id="stop10107" />
    </linearGradient>
  </defs>
  <sodipodi:namedview
     id="base"
     pagecolor="#ffffff"
     bordercolor="#666666"
     borderopacity="1.0"
     inkscape:pageopacity="0.0"
     inkscape:pageshadow="2"
     inkscape:zoom="1.6528621"
     inkscape:cx="33.440423"
     inkscape:cy="12.378269"
     inkscape:document-units="px"
     inkscape:current-layer="layer1"
     showgrid="true"
     units="px"
     inkscape:snap-bbox="true"
     inkscape:bbox-nodes="true"
     inkscape:snap-global="false"
     inkscape:window-width="1920"
     inkscape:window-height="1181"
     inkscape:window-x="0"
     inkscape:window-y="19"
     inkscape:window-maximized="0"
     inkscape:snap-bbox-midpoints="true"
     showguides="true"
     inkscape:guide-bbox="true"
     inkscape:snap-nodes="true"
     inkscape:snap-others="true"
     inkscape:object-nodes="true"
     inkscape:snap-center="true">
    <inkscape:grid
       type="xygrid"
       id="grid4747"
       empspacing="5"
       spacingx="2"
       spacingy="2" />
    <sodipodi:guide
       position="200,25"
       orientation="0,1"
       id="guide5334"
       inkscape:label=""
       inkscape:color="rgb(0,0,255)" />
    <sodipodi:guide
       position="0,-30"
       orientation="0,1"
       id="guide5336" />
    <sodipodi:guide
       position="0,-80"
       orientation="0,1"
       id="guide5375" />
    <inkscape:grid
       type="xygrid"
       id="grid5496"
       color="#ff3f3f"
       opacity="0.1254902"
       empspacing="1"
       spacingx="40"
       spacingy="50.000001"
       empcolor="#ff3f3f"
       empopacity="0.25098039" />
  </sodipodi:namedview>
  <metadata
     id="metadata4204">
    <rdf:RDF>
      <cc:Work
         rdf:about="">
        <dc:format>image/svg+xml</dc:format>
        <dc:type
           rdf:resource="http://purl.org/dc/dcmitype/StillImage" />
        <dc:title></dc:title>
      </cc:Work>
    </rdf:RDF>
  </metadata>
  <g
     inkscape:label="Layer 1"
     inkscape:groupmode="layer"
     id="layer1"
     transform="translate(0,-952.3621)"
     style="display:inline">
    <rect
       style="opacity:1;fill:url(#radialGradient10777);fill-opacity:1;stroke:none;stroke-width:1;stroke-linecap:butt;stroke-linejoin:miter;stroke-miterlimit:4;stroke-dasharray:none;stroke-opacity:1"
       id="rect10101"
       width="175.71477"
       height="117.14317"
       x="-7.3380589"
       y="946.54871"
       inkscape:transform-center-x="-75.418214"
       inkscape:transform-center-y="-35.406943" />
    <path
       style="opacity:1;fill:#000000;fill-opacity:1;stroke:none;stroke-width:2;stroke-linecap:square;stroke-linejoin:round;stroke-miterlimit:4;stroke-dasharray:none;stroke-opacity:0.50196078"
       d="m -111.08647,1018.4927 c 8.92173,1.7774 15.026877,5.8158 12.675147,10.2222 -1.38769,0.4006 -2.729337,0.7893 -4.018157,1.2112 -7.65985,0.2017 -14.93837,-6.1432 -24.99642,-2.5173 5.22723,1.3278 11.73734,4.1269 10.00497,7.7816 -0.75924,0.3025 -1.53893,0.6068 -2.26255,0.9041 -6.54187,0.6257 -13.13093,-3.3549 -22.13987,-0.2775 4.73531,0.7408 10.68617,2.6459 9.82202,5.9496 -1.22419,0.6242 -2.44063,1.2424 -3.60919,1.8571 -5.51183,0.8102 -11.29307,-2.2183 -18.77279,0.8247 3.98635,0.3913 9.01878,1.6857 8.67022,4.4258 -1.30646,0.6578 -2.60429,1.3135 -3.99598,1.9642 -0.47092,0.2207 -1.18817,0.5154 -1.78013,0.7747 -4.44836,-0.047 -8.86574,-2.7427 -15.07128,-0.9433 3.19315,0.6541 7.14687,2.1037 6.82714,4.2605 -1.62731,0.6229 -3.80529,1.4198 -5.71553,2.1339 -4.05648,-0.6008 -8.13346,-2.9145 -13.89034,-1.5469 2.98793,0.7667 6.61617,2.2802 6.63816,4.2529 -1.48222,0.5416 -3.42931,1.2273 -5.02093,1.8005 -3.88789,0.4479 -7.36063,-2.5205 -12.77337,-1.2343 2.6946,0.6911 6.05714,2.175 4.7923,4.0935 -1.88482,0.6727 -3.39929,1.2285 -5.39577,1.9334 -3.57188,0 -6.9272,-2.4785 -11.96081,-1.2824 2.52311,0.6469 5.60666,1.9958 4.95648,3.7387 -2.20672,0.7759 -4.50408,1.5826 -6.81802,2.3944 -3.39135,-0.2081 -6.66289,-2.4258 -11.46364,-1.2849 2.42285,0.6216 5.39365,1.8863 5.05144,3.5297 -2.18386,0.7641 -4.64159,1.6173 -6.90398,2.4042 -3.20016,-0.2114 -6.29818,-2.2909 -10.82998,-1.2144 2.27366,0.5835 5.06334,1.7635 4.81082,3.2971 -2.44878,0.8502 -5.24683,1.8168 -7.7711,2.6937 -2.86366,-0.4915 -5.77237,-2.0543 -9.8339,-1.0888 2.04555,0.5248 4.47507,1.5344 4.76532,2.848 -3.09658,1.072 -6.16643,2.1414 -9.35843,3.2442 -2.84331,-0.5035 -5.73453,-2.0444 -9.76645,-1.0864 2.02982,0.5211 4.44406,1.5182 4.7654,2.817 -3.00563,1.0412 -5.61385,1.9479 -8.68838,3.0106 -2.58829,-0.2743 -5.13723,-1.8581 -8.80866,-0.9858 1.84354,0.4729 4.06978,1.4158 4.02537,2.6402 -3.40403,1.1758 -6.87837,2.3867 -10.34782,3.5878 -1.67771,-0.4524 -3.50558,-0.8519 -5.76178,-0.3159 1.06058,0.2743 2.24403,0.7069 3.05973,1.2528 -8.42361,2.9126 -17.1227,5.9326 -25.80628,8.9431 4.1407,-3.4512 10.13599,-7.486 10.13599,-7.486 0,0 -18.07477,9.1224 -34.72428,15.8766 0.30831,-0.092 0.69072,-0.1419 1.01208,-0.2175 -0.23737,0.067 -0.4466,0.1797 -0.68411,0.2459 2.0656,-0.4524 3.99468,-0.8947 6.04564,-1.3455 14.07712,-2.5036 32.58902,-3.3762 32.58902,-3.3762 0,0 -8.29475,-0.2648 -13.44909,-0.8969 37.38281,-8.3944 71.04335,-16.2572 97.81834,-22.3203 0.61567,0.594 -0.32395,1.9016 -1.20135,2.7916 2.46364,-0.7812 3.23695,-2.726 4.79046,-3.6121 3.21669,-0.7235 5.78194,-1.2743 8.77214,-1.9366 1.41516,0.6569 0.0256,2.764 -1.27839,4.1691 3.51872,-1.238 4.49124,-4.1098 6.75446,-5.3796 2.30585,-0.5048 4.95943,-1.105 7.10266,-1.563 1.40593,1.2489 -0.64017,4.0494 -2.54826,5.9402 5.27022,-1.6122 6.94891,-5.7482 10.30161,-7.5738 1.54096,-0.3206 3.05703,-0.6243 4.48333,-0.9088 1.74117,1.6402 -0.89091,5.3074 -3.32793,7.7928 6.32619,-2.0311 8.61853,-6.8146 12.33603,-9.4829 1.04935,-0.1797 2.12404,-0.3722 3.06472,-0.5279 1.71962,2.4459 -2.07121,6.8987 -5.48751,9.8838 8.05275,-1.9167 11.72087,-7.3453 16.39188,-10.6869 0.15336,0.047 0.32951,0.088 0.42329,0.1545 0.072,0.05 0.15513,0.095 0.22852,0.145 -0.56332,1.7874 -0.74928,3.4214 -0.51059,4.7962 -0.0142,0.05 -0.0558,0.067 -0.0759,0.088 -0.60189,1.058 -0.12475,2.0438 1.0812,2.878 -0.18019,1.3511 0.53743,2.7759 1.899,4.077 0.54874,0.7108 1.23915,1.2606 2.06697,1.6149 0.0542,0.047 0.10603,0.047 0.15737,0.051 2.8922,1.7587 6.96451,2.9917 11.21791,2.9242 4.48295,-0.072 6.73149,-0.2648 8.21403,-0.7935 0.68036,0.227 1.56427,0.6311 2.6457,0.8657 -0.0876,1.0907 -0.004,1.905 0.51485,2.1798 0.63641,2.0649 3.3057,3.7118 2.76321,2.7475 -0.46624,-0.8285 -0.55124,-1.6497 -0.53505,-2.6185 0.49627,-0.3442 0.0761,-1.3047 0.82999,-2.1247 0.18756,-0.2585 0.29179,-0.3487 0.45885,-0.5643 0.0287,0 0.0525,0 0.0821,-0.047 2.01318,-0.8814 3.03189,-0.3253 3.82934,-0.1419 1.33836,1.6869 2.01471,3.0901 2.84502,3.3993 0.33146,0.7008 0.56269,1.3782 0.53347,2.1824 -0.0349,0.9615 1.18189,-0.9514 1.25563,-2.8648 0.74757,-0.5647 0.11903,-1.6809 -1.02869,-3.2038 1.18832,1.0052 2.03386,1.7239 2.80339,1.6108 0.54598,0.6327 0.96995,1.2603 1.15198,2.0936 0.21936,1.0027 1.02669,-1.529 0.4234,-3.4687 0.32508,-0.541 0.005,-1.1626 -0.72265,-1.8845 0.50984,0.2869 0.97037,0.4527 1.37796,0.3395 0.7584,0.6746 1.322397,1.3067 1.617557,2.2436 0.33286,1.0542 0.95375,-2.0189 -0.1175,-3.8942 0.31631,-1.1535 -1.977377,-2.4608 -4.731847,-4.2533 -0.49524,-0.3253 -2.09108,-0.4105 -2.7403,-0.5325 -0.82324,-0.1545 -1.55741,-0.1923 -2.24472,-0.1828 0.049,-0.067 0.0772,-0.1324 0.14662,-0.1986 0.18962,-0.2302 0.29926,-0.3159 0.47049,-0.5094 0.0372,0 0.0691,0 0.10668,-0.047 2.42535,-1.1036 3.69049,-0.7581 4.67459,-0.8007 1.13999,1.216 1.74445,2.2005 2.63129,2.3985 0.28794,0.5545 0.40548,1.0806 0.25229,1.7177 -0.18256,0.7582 1.525927,-0.7553 1.896187,-2.2635 0.45653,-0.2174 0.58617,-0.5229 0.44395,-0.9237 0.58043,0.287 1.13079,0.4739 1.6572,0.415 0.56831,0.4873 0.9904,0.9735 1.10591,1.6267 0.13933,0.7862 1.38708,-1.2264 0.90896,-2.7423 0.21833,-0.2114 0.25704,-0.4339 0.14851,-0.67 0.49275,0.4717 0.8601,0.9419 0.94509,1.5624 0.11661,0.8513 1.61633,-1.5207 0.85442,-3.0693 0.65719,-0.8846 -1.664,-2.0692 -4.38919,-3.6675 -0.4893,-0.2869 -2.31057,-0.4669 -3.029047,-0.6087 -0.187,-0.047 -0.35149,-0.047 -0.53317,-0.076 13.843997,-3.3466 27.565147,-8.0699 37.502798,-11.7705 0.212348,0.2364 0.44899,0.4574 0.710559,0.6746 -0.07944,1.2269 0.547268,2.5446 1.696877,3.793 0.50075,0.7411 1.151352,1.3325 1.951361,1.7379 0.04802,0.047 0.09199,0.047 0.136879,0.06 2.772674,1.9465 6.764486,3.4438 11.019671,3.6521 4.47662,0.2207 6.730181,0.1734 8.244077,-0.2584 0.663884,0.2679 1.520618,0.7298 2.583364,1.0343 -0.158379,1.0844 -0.125309,1.9038 0.377185,2.2108 0.503505,2.0998 3.056291,3.9175 2.577834,2.9208 -0.411696,-0.8572 -0.437204,-1.6857 -0.358042,-2.6516 0.509378,-0.3206 0.1557,-1.2969 0.958583,-2.0635 0.204625,-0.246 0.313385,-0.3302 0.493942,-0.5357 0.03027,0 0.05501,0 0.08609,-0.047 2.212783,-0.8021 3.174536,-0.051 3.988567,0.1324 0.66898,1.7764 0.962023,3.1549 1.61501,3.6484 0.120361,0.767 0.150278,1.4832 -0.105383,2.2479 -0.304874,0.9118 1.40287,-0.5775 2.014824,-2.3914 0.41686,-0.1703 0.590714,-0.5142 0.556027,-1.0583 0.4148,0.5056 0.822874,0.8783 1.264813,0.9309 0.364775,0.7541 0.612366,1.4666 0.572727,2.3193 -0.04735,1.0255 1.389094,-1.2064 1.308416,-3.2364 0.221491,-0.2112 0.299137,-0.4835 0.259541,-0.8079 0.306198,0.7118 0.508201,1.3996 0.450539,2.2025 -0.07935,1.1035 1.631728,-1.5282 1.325695,-3.6675 0.721611,-0.9543 -0.932231,-3.0118 -2.833498,-5.6948 -0.309097,-0.4338 -1.469144,-1.0016 -2.112032,-1.3717 0.06728,-0.4668 0.07559,-0.9697 0.0186,-1.4719 0.6568,-0.6708 -0.136817,-1.6836 -1.503799,-3.0181 1.323523,0.8121 2.2663,1.3915 3.009064,1.1699 0.637829,0.5444 1.157285,1.0986 1.463823,1.8962 0.3683,0.9579 0.780138,-1.6629 -0.10677,-3.4889 0.244126,-0.5831 -0.173039,-1.1549 -1.007217,-1.7615 0.552196,0.2112 1.036499,0.3057 1.424106,0.1323 0.850971,0.5518 1.503184,1.0968 1.936318,1.9779 0.487917,0.9915 0.637044,-2.1387 -0.703736,-3.8321 0.147534,-1.19 -2.321585,-2.1329 -5.32043,-3.4913 -0.538903,-0.2459 -2.132012,-0.089 -2.792308,-0.1136 -1.232899,-0.047 -2.280301,0.088 -3.170735,0.3301 -1.55099,0.06 -3.490013,0.4291 -5.935772,1.1875 -0.238767,0.072 -0.468279,0.183 -0.700985,0.2964 -0.815759,-0.3581 -1.936432,-0.7358 -3.365523,-1.1419 0.668755,-1.7239 1.114099,-3.3885 1.332809,-4.9496 2.751619,-2.8549 4.166927,-5.432 8.014914,-8.0283 7.076045,-4.775 51.644635,-20.3346 66.981081,-25.3035 -3.74588,3.9784 -7.90846,7.5669 -7.90846,7.5669 0,0 4.061489,-1.7241 8.795351,-3.655 -4.487178,6.0436 -11.772638,13.3055 -11.772638,13.3055 0,0 16.298881,-11.6104 26.965255,-15.2767 8.229875,-0.6252 34.179005,-9.3489 39.899305,-11.8431 1.036011,-2.7568 0.854749,-3.0434 0.261685,-5.7951 -0.345029,0.1512 -0.866047,0.2489 -1.336899,0.3867 l -1.258993,-4.53755 -0.994209,3.38475 -0.489332,-2.07595 -0.793134,2.98925 -2.270014,-3.45425 -0.594148,4.86015 -1.302691,-3.92045 -1.371763,3.93875 -1.226906,-3.48975 -1.461006,4.44465 c -0.221648,0 -0.43758,0.051 -0.65627,0.078 l -1.03746,-4.40175 -1.329494,4.69925 c -0.136438,0.047 -0.282743,0.047 -0.424332,0.05 l -1.901392,-3.5779 -0.182968,3.8387 c -0.369688,0.047 -0.744895,0.097 -1.110616,0.1418 l -0.93396,-3.9519 -1.917864,4.248 c -1.62125,0.1702 -3.314621,0.3537 -4.684416,0.4747 -4.242983,0.382 -5.153602,-1.7669 -5.557937,-5.281 2.389103,-1.53625 5.363718,-3.18435 8.418728,-4.80345 l 3.951852,2.755 -1.309726,-4.1455 c 0.03443,0 0.06828,0 0.102457,-0.047 l 3.289124,4.5197 -0.675298,-4.84 3.308244,2.4961 -1.453587,-4.3654 c 0.03443,0 0.06828,0 0.102457,-0.047 l 4.651708,4.4676 -1.279525,-5.6385 3.887853,4.946 -0.738767,-4.7367 4.02867,2.2519 -1.397597,-3.342 3.928117,3.579 -1.542771,-4.9348 c 2.313421,0.726 4.477263,2.2202 4.477263,2.2202 0,0 -1.132492,-4.86417 -6.403613,-7.29844 -0.830676,-0.38208 -2.558292,-0.46692 -4.790827,-0.36788 -1.518574,-0.44803 -3.267735,-1.72569 -3.267735,-1.72569 0,0 -1.579047,1.48011 -3.234122,2.33947 -0.778234,0.0972 -1.591489,0.20169 -2.415122,0.3158 -1.413637,-0.52545 -2.880741,-1.60145 -2.880741,-1.60145 0,0 -1.921032,1.80105 -3.751742,2.57808 -3.117733,0.49869 -6.010295,0.96376 -9.130136,1.49772 a 3.4499026,6.7866938 79.054784 0 0 -1.912224,-0.89562 3.4499026,6.7866938 79.054784 0 0 -7.363117,0.83163 3.4499026,6.7866938 79.054784 0 0 -2.81149,2.08038 c -3.895101,0.6065 -7.033715,1.0208 -8.37089,0.9267 -5.851323,-0.4101 -27.8475762,5.8186 -27.8475762,5.8186 4.4811952,-0.9231 10.2777272,-0.06 15.1045802,1.4583 -5.708164,0.4898 -10.934652,1.185 -11.6922378,2.2124 1.8273398,-0.7544 9.0869018,0.7689 14.3658428,3.16035 -1.297865,0.3253 -2.772972,0.7528 -4.448867,1.2276 -3.49422,-0.3059 -7.961646,-1.9039 -12.2081142,-0.8472 1.94078,1.1923 4.4142262,2.1683 4.6357142,2.9836 -0.756669,0.2175 -1.646611,0.476 -2.4359942,0.7042 -3.094057,-0.6519 -6.471802,-2.5591 -10.43604,-1.5728 1.92153797,1.1807 4.414671,2.3063 4.699279,3.1877 -1.497006,0.4338 -2.71955903,0.7864 -4.29043303,1.1917 -3.06579597,-1.1096 -6.13897497,-3.1089 -10.42937077,-2.0415 1.9183378,1.179 3.8116418,2.5292 4.4455778,3.6474 -1.188239,0.2932 -2.351108,0.6257 -3.5463338,0.9376 -5.282587,-0.6277 -9.942646,-5.3523 -17.164175,-3.5557 3.565969,1.305 7.912991,3.7164 6.605092,6.1516 -1.178807,0.2743 -2.315271,0.5123 -3.479011,0.7702 -6.14584,-1.7401 -11.600114,-7.2257 -20.36437,-5.6157 4.268367,1.8702 9.36378,5.095 8.169063,8.0097 -1.287453,0.208 -2.524319,0.3769 -3.742481,0.5356 -7.120402,-1.9492 -12.635285,-9.2944 -22.908949,-8.2223 4.692089,2.5072 10.25601,6.7069 7.910993,9.8218 -0.556936,0.067 -1.168208,0.1513 -1.751972,0.227 -9.601868,-0.662 -17.106515,-10.3123 -30.199591,-7.8464 6.09049,2.6366 13.459767,7.3584 10.153917,11.4308 -0.713941,0.1545 -1.480717,0.3391 -2.221201,0.5093 -9.519806,-0.4337 -16.978086,-9.0062 -31.795663,-5.2516 z M 47.54029,991.19855 c 1.277829,0.3253 2.706901,0.5059 3.527475,1.1796 0.01229,0.2017 -0.0082,0.4057 -0.05672,0.6031 -0.269131,1.0699 -1.354165,1.7181 -2.424227,1.4523 -1.071629,-0.268 -1.723138,-1.3517 -1.456236,-2.4236 0.09165,-0.3628 0.137895,-0.5511 0.409713,-0.8114 z m -164.00301,91.60695 c 0.3636,0 0.84222,0.057 1.30535,0.1038 -0.34824,0.047 -0.64234,0.057 -1.0109,0.1135 -0.2486,0 -0.49127,0.095 -0.72586,0.2112 -0.0858,-0.05 -0.13899,-0.1037 -0.23243,-0.1607 0.2441,-0.069 0.45724,-0.1798 0.67045,-0.2491 z m 84.350384,-19.2567 c 1.144279,-0.3959 1.916969,-0.1639 2.533975,-0.1166 0.900263,0.8354 1.547668,1.5506 2.114971,2.1037 -0.944231,-0.2933 -1.795933,-0.3866 -2.529631,-0.3255 -1.101582,-0.1134 -2.439266,-0.1134 -3.958941,-0.047 0.04574,-0.1167 0.08665,-0.2364 0.167616,-0.3582 0.14495,-0.2837 0.230885,-0.3867 0.362663,-0.6203 0.03159,0 0.05839,0 0.09026,-0.047 0.450691,-0.2868 0.856745,-0.4782 1.223689,-0.6091 z"
       id="path4885"
       inkscape:connector-curvature="0"
       inkscape:transform-center-x="137.65526"
       inkscape:transform-center-y="8.6188297" />
    <path
       style="fill:#000000;fill-rule:evenodd;stroke:none;stroke-width:1px;stroke-linecap:butt;stroke-linejoin:miter;stroke-opacity:1"
       d="m 6.0752078,995.27015 c 4.4811902,-0.9229 10.2778572,-0.06 15.1045752,1.458 -5.708029,0.4909 -10.934517,1.1854 -11.6921066,2.2131 1.8273396,-0.7543 9.0867746,0.7686 14.3657156,3.15995 -1.297869,0.3255 -2.772972,0.7526 -4.44887,1.2277 -0.05123,0 -0.124283,0 -0.180974,-0.047 l 13.388297,6.065 1.934718,8.0883 -0.04914,0 c 0.152859,-0.047 0.454612,-0.1798 0.602051,-0.2208 -3.745876,3.9782 -7.908456,7.5665 -7.908456,7.5665 0,0 4.06149,-1.7244 8.795352,-3.6546 -4.487179,6.0432 -11.772639,13.3052 -11.772639,13.3052 0,0 16.298882,-11.6104 26.965255,-15.2767 8.229879,-0.6248 34.179006,-9.3492 39.899306,-11.8431 1.036011,-2.7565 0.854749,-3.0431 0.261685,-5.7952 -0.345029,0.1513 -0.866047,0.2491 -1.336905,0.3868 l -1.258987,-4.53765 -0.994209,3.38525 -0.489332,-2.07605 -0.79314,2.98915 -2.270007,-3.45445 -0.594149,4.86045 -1.302692,-3.92065 -1.371761,3.93865 -1.226908,-3.48935 -1.461004,4.44455 c -0.221586,0 -0.437582,0.05 -0.65627,0.079 l -1.037468,-4.40185 -1.329487,4.70005 c -0.136438,0.047 -0.282743,0.047 -0.424332,0.05 l -1.901392,-3.578 -0.182968,3.8388 c -0.369735,0.047 -0.744898,0.098 -1.110624,0.1418 l -0.933953,-3.9516 -1.917863,4.2477 c -1.62125,0.1702 -3.314624,0.3536 -4.684419,0.4747 -4.242984,0.382 -5.153595,-1.7669 -5.557935,-5.2809 2.389108,-1.53635 5.363722,-3.18445 8.41873,-4.80325 l 3.95185,2.7547 -1.309728,-4.1448 c 0.03443,0 0.06828,0 0.102458,-0.047 l 3.288995,4.5194 -0.675165,-4.8395 3.308243,2.4959 -1.45372,-4.3658 c 0.03443,0 0.06828,0 0.102459,-0.047 l 4.651576,4.467 -1.279394,-5.6375 3.887856,4.9458 -0.73877,-4.7368 4.028673,2.2521 -1.3976,-3.3422 3.928116,3.5789 -1.542896,-4.9355 c 2.313546,0.7267 4.477392,2.2213 4.477392,2.2213 0,0 -1.132494,-4.8642 -6.403612,-7.29882 -0.830677,-0.38207 -2.558293,-0.46691 -4.790828,-0.36798 -1.518578,-0.44792 -3.267735,-1.72591 -3.267735,-1.72591 0,0 -1.579048,1.47978 -3.234123,2.33947 -0.778231,0.0983 -1.591491,0.20169 -2.415122,0.3158 -1.413638,-0.52578 -2.880743,-1.60167 -2.880743,-1.60167 0,0 -1.921029,1.80128 -3.75174,2.57798 -3.119044,0.49465 -6.010294,0.96441 -9.130135,1.49837 -0.463839,-0.39125 -1.116994,-0.69819 -1.912224,-0.89562 -2.151058,-0.52894 -5.04772,-0.20168 -7.363118,0.83163 -1.26406,0.56145 -2.250941,1.29405 -2.811491,2.07975 -3.8951,0.6071 -7.033713,1.0211 -8.370894,0.9274 -5.851318,-0.4102 -27.8475712,5.8182 -27.8475712,5.8182 z"
       id="path5368"
       inkscape:connector-curvature="0"
       sodipodi:nodetypes="ccccccccccccccccccccccccccccccccccccccccccccccccccccccccsccccccccccscc"
       inkscape:transform-center-x="-29.628288"
       inkscape:transform-center-y="-31.14602" />
    <path
       style="fill:#000000;fill-rule:evenodd;stroke:none;stroke-width:1px;stroke-linecap:butt;stroke-linejoin:miter;stroke-opacity:1"
       d="m -176.30572,902.90793 c -2.0185,0.39626 -3.4005,0.85588 -4.70055,2.12034 -1.29981,1.26885 0.33683,-4.09062 3.52966,-5.55272 3.19279,-1.46243 1.16984,3.43301 1.16984,3.43301 z"
       id="path5500"
       inkscape:connector-curvature="0"
       inkscape:transform-center-x="197.8833"
       inkscape:transform-center-y="-136.80285" />
    <circle
       r="18.686823"
       cy="978.88562"
       cx="-349.77335"
       id="circle5286"
       style="opacity:1;fill:#ff0000;fill-opacity:1;stroke:none;stroke-width:2;stroke-linecap:square;stroke-linejoin:round;stroke-miterlimit:4;stroke-dasharray:none;stroke-opacity:0.50196078"
       transform="matrix(0.96063538,-0.2778123,0.2778123,0.96063538,0,0)"
       inkscape:transform-center-x="83.377047"
       inkscape:transform-center-y="-1.4911997" />
    <circle
       style="opacity:1;fill:#ff0000;fill-opacity:1;stroke:none;stroke-width:2;stroke-linecap:square;stroke-linejoin:round;stroke-miterlimit:4;stroke-dasharray:none;stroke-opacity:0.50196078"
       id="circle5288"
       cx="-384.74524"
       cy="978.88562"
       r="17.827497"
       transform="matrix(0.96063538,-0.2778123,0.2778123,0.96063538,0,0)"
       inkscape:transform-center-x="116.97228"
       inkscape:transform-center-y="8.2244223" />
    <circle
       r="14.592567"
       cy="978.88562"
       cx="-415.34567"
       id="circle5290"
       style="opacity:1;fill:#ff0000;fill-opacity:1;stroke:none;stroke-width:2;stroke-linecap:square;stroke-linejoin:round;stroke-miterlimit:4;stroke-dasharray:none;stroke-opacity:0.50196078"
       transform="matrix(0.96063538,-0.2778123,0.2778123,0.96063538,0,0)"
       inkscape:transform-center-x="146.36814"
       inkscape:transform-center-y="16.725599" />
    <circle
       style="opacity:1;fill:#ff0000;fill-opacity:1;stroke:none;stroke-width:2;stroke-linecap:square;stroke-linejoin:round;stroke-miterlimit:4;stroke-dasharray:none;stroke-opacity:0.50196078"
       id="circle5292"
       cx="-450.31766"
       cy="978.88562"
       r="9.4968386"
       transform="matrix(0.96063538,-0.2778123,0.2778123,0.96063538,0,0)"
       inkscape:transform-center-x="179.96347"
       inkscape:transform-center-y="26.441247" />
    <circle
       r="7.600883"
       cy="978.88562"
       cx="-480.91806"
       id="circle5294"
       style="opacity:1;fill:#ff0000;fill-opacity:1;stroke:none;stroke-width:2;stroke-linecap:square;stroke-linejoin:round;stroke-miterlimit:4;stroke-dasharray:none;stroke-opacity:0.50196078"
       transform="matrix(0.96063538,-0.2778123,0.2778123,0.96063538,0,0)"
       inkscape:transform-center-x="209.3593"
       inkscape:transform-center-y="34.942416" />
    <circle
       style="opacity:1;fill:#ff0000;fill-opacity:1;stroke:none;stroke-width:2;stroke-linecap:square;stroke-linejoin:round;stroke-miterlimit:4;stroke-dasharray:none;stroke-opacity:0.50196078"
       id="circle5296"
       cx="-507.14694"
       cy="978.88562"
       r="6.009872"
       transform="matrix(0.96063538,-0.2778123,0.2778123,0.96063538,0,0)"
       inkscape:transform-center-x="234.55569"
       inkscape:transform-center-y="42.22912" />
    <circle
       r="4.6575093"
       cy="978.88562"
       cx="-533.37592"
       id="circle5298"
       style="opacity:1;fill:#ff0000;fill-opacity:1;stroke:none;stroke-width:2;stroke-linecap:square;stroke-linejoin:round;stroke-miterlimit:4;stroke-dasharray:none;stroke-opacity:0.50196078"
       transform="matrix(0.96063538,-0.2778123,0.2778123,0.96063538,0,0)"
       inkscape:transform-center-x="259.7522"
       inkscape:transform-center-y="49.51586" />
    <circle
       style="opacity:1;fill:#ff0000;fill-opacity:1;stroke:none;stroke-width:2;stroke-linecap:square;stroke-linejoin:round;stroke-miterlimit:4;stroke-dasharray:none;stroke-opacity:0.50196078"
       id="circle5300"
       cx="-555.23334"
       cy="978.88562"
       r="4.1745238"
       transform="matrix(0.96063538,-0.2778123,0.2778123,0.96063538,0,0)"
       inkscape:transform-center-x="280.74921"
       inkscape:transform-center-y="55.588122" />
    <circle
       r="2.4357724"
       cy="978.88562"
       cx="-577.09088"
       id="circle5302"
       style="opacity:1;fill:#ff0000;fill-opacity:1;stroke:none;stroke-width:2;stroke-linecap:square;stroke-linejoin:round;stroke-miterlimit:4;stroke-dasharray:none;stroke-opacity:0.50196078"
       transform="matrix(0.96063538,-0.2778123,0.2778123,0.96063538,0,0)"
       inkscape:transform-center-x="301.74635"
       inkscape:transform-center-y="61.660416" />
    <circle
       style="opacity:1;fill:#ff0000;fill-opacity:1;stroke:none;stroke-width:2;stroke-linecap:square;stroke-linejoin:round;stroke-miterlimit:4;stroke-dasharray:none;stroke-opacity:0.50196078"
       id="circle5304"
       cx="-598.94843"
       cy="978.88562"
       r="1.3162839"
       transform="matrix(0.96063538,-0.2778123,0.2778123,0.96063538,0,0)"
       inkscape:transform-center-x="322.74347"
       inkscape:transform-center-y="67.732711" />
    <circle
       r="7.9692755"
       cy="978.91467"
       cx="-249.09488"
       id="circle5373"
       style="opacity:1;fill:#000000;fill-opacity:1;stroke:none;stroke-width:2;stroke-linecap:square;stroke-linejoin:round;stroke-miterlimit:4;stroke-dasharray:none;stroke-opacity:0.50196078"
       transform="matrix(0.96063538,-0.2778123,0.2778123,0.96063538,0,0)"
       inkscape:transform-center-x="-13.346321"
       inkscape:transform-center-y="-29.433007" />
    <path
       style="opacity:1;fill:#000000;fill-opacity:1;stroke:none;stroke-width:2;stroke-linecap:square;stroke-linejoin:round;stroke-miterlimit:4;stroke-dasharray:none;stroke-opacity:0.50196078"
       d="m -74.017981,1040.4047 19.919655,-5.7609 c -4.063303,-17.9633 -7.991132,-36.48565 -11.074694,-58.49381 -0.112605,-18.52882 2.990639,-41.48431 6.317519,-64.74717 -20.324022,-7.50786 -41.275589,-13.35911 -62.522419,-18.43015 -18.52878,0.84517 -36.20847,3.15119 -53.66276,5.84495 1.09372,0.29634 0.54054,3.73061 1.62632,4.04239 23.77329,6.826 45.87146,14.02367 1.58615,34.7283 1.13902,-0.0756 0.72036,3.02351 1.83004,2.90908 28.48133,-2.94659 49.36058,-2.4214 16.50433,34.37302 1.18366,-0.11348 1.91427,2.45576 2.94752,1.92646 24.12181,-12.34814 45.08374,-14.86252 24.86392,23.02478 1.25947,0 2.84927,1.75635 4.01833,1.52435 42.536859,-8.44525 53.679554,28.5091 47.646072,39.0587 z"
       id="path5498"
       inkscape:connector-curvature="0"
       sodipodi:nodetypes="ccccccscscscsc"
       inkscape:transform-center-x="133.88838"
       inkscape:transform-center-y="-72.326054" />
    <ellipse
       style="opacity:1;fill:#000000;fill-opacity:1;stroke:none;stroke-width:2;stroke-linecap:square;stroke-linejoin:round;stroke-miterlimit:4;stroke-dasharray:none;stroke-opacity:0.50196078"
       id="path5529"
       cx="-418.63422"
       cy="816.88599"
       rx="2.2177472"
       ry="2.5296183"
       inkscape:transform-center-x="194.53273"
       inkscape:transform-center-y="-137.98338"
       transform="matrix(0.96063538,-0.2778123,0.2778123,0.96063538,0,0)" />
    <path
       inkscape:connector-curvature="0"
       id="path5531"
       d="m -171.93613,941.19724 c -2.12368,0.61409 -3.56144,1.23134 -4.83406,2.7089 -1.27293,1.47943 -0.0217,-4.41027 3.25976,-6.27432 3.28136,-1.86373 1.57314,3.56572 1.57314,3.56572 z"
       style="fill:#000000;fill-rule:evenodd;stroke:none;stroke-width:1px;stroke-linecap:butt;stroke-linejoin:miter;stroke-opacity:1"
       inkscape:transform-center-x="193.69522"
       inkscape:transform-center-y="-98.322562" />
    <ellipse
       ry="2.1510479"
       rx="2.0552495"
       cy="817.93018"
       cx="-504.51523"
       id="ellipse5533"
       style="opacity:1;fill:#000000;fill-opacity:1;stroke:none;stroke-width:2;stroke-linecap:square;stroke-linejoin:round;stroke-miterlimit:4;stroke-dasharray:none;stroke-opacity:0.50196078"
       transform="matrix(0.93541887,-0.35354141,0.36767687,0.92995361,0,0)"
       inkscape:transform-center-x="190.51793"
       inkscape:transform-center-y="-100.01056" />
    <path
       style="fill:#000000;fill-rule:evenodd;stroke:none;stroke-width:1px;stroke-linecap:butt;stroke-linejoin:miter;stroke-opacity:1"
       d="m -152.33688,978.1644 c -1.43176,1.14024 -2.33664,2.06769 -2.84521,3.59883 -0.50763,1.53397 -1.40817,-3.3687 0.51538,-5.83076 1.92339,-2.46206 2.32905,2.23289 2.32905,2.23289 z"
       id="path5535"
       inkscape:connector-curvature="0"
       inkscape:transform-center-x="173.40813"
       inkscape:transform-center-y="-60.378177" />
    <ellipse
       transform="matrix(0.72512041,-0.68862209,0.68862209,0.72512041,0,0)"
       style="opacity:1;fill:#000000;fill-opacity:1;stroke:none;stroke-width:2;stroke-linecap:square;stroke-linejoin:round;stroke-miterlimit:4;stroke-dasharray:none;stroke-opacity:0.50196078"
       id="ellipse5537"
       cx="-782.82446"
       cy="602.91187"
       rx="1.7025225"
       ry="1.9419398"
       inkscape:transform-center-x="171.78245"
       inkscape:transform-center-y="-62.760768" />
    <path
       inkscape:connector-curvature="0"
       id="path5539"
       d="m -123.6856,1002.6306 c -0.9354,1.424 -1.46672,2.5065 -1.47193,4.0089 -0.003,1.5037 -2.2234,-2.5714 -1.23658,-5.3074 0.98664,-2.73605 2.70802,1.2991 2.70802,1.2991 z"
       style="fill:#000000;fill-rule:evenodd;stroke:none;stroke-width:1px;stroke-linecap:butt;stroke-linejoin:miter;stroke-opacity:1"
       inkscape:transform-center-x="144.48513"
       inkscape:transform-center-y="-35.342921" />
    <ellipse
       ry="1.8077407"
       rx="1.5848687"
       cy="365.24664"
       cx="-940.21991"
       id="ellipse5541"
       style="opacity:1;fill:#000000;fill-opacity:1;stroke:none;stroke-width:2;stroke-linecap:square;stroke-linejoin:round;stroke-miterlimit:4;stroke-dasharray:none;stroke-opacity:0.50196078"
       transform="matrix(0.47426207,-0.88038372,0.88038372,0.47426207,0,0)"
       inkscape:transform-center-x="143.67233"
       inkscape:transform-center-y="-38.037774" />
    <ellipse
       style="opacity:1;fill:#000000;fill-opacity:1;stroke:none;stroke-width:2;stroke-linecap:square;stroke-linejoin:round;stroke-miterlimit:4;stroke-dasharray:none;stroke-opacity:0.50196078"
       id="path5543"
       cx="-119.00528"
       cy="895.0639"
       rx="3.8810582"
       ry="2.148443"
       transform="matrix(0.99999408,0.00344225,-0.00344225,0.99999408,0,0)"
       inkscape:transform-center-x="141.40448"
       inkscape:transform-center-y="-144.36575" />
    <ellipse
       transform="matrix(0.92916075,-0.36967594,0.36967594,0.92916075,0,0)"
       ry="2.148443"
       rx="3.8810582"
       cy="825.77838"
       cx="-394.69138"
       id="ellipse5545"
       style="opacity:1;fill:#000000;fill-opacity:1;stroke:none;stroke-width:2;stroke-linecap:square;stroke-linejoin:round;stroke-miterlimit:4;stroke-dasharray:none;stroke-opacity:0.50196078"
       inkscape:transform-center-x="80.780198"
       inkscape:transform-center-y="-125.82593" />
    <path
       style="opacity:1;fill:url(#radialGradient9924);fill-opacity:1;stroke:none;stroke-width:1;stroke-linecap:butt;stroke-linejoin:miter;stroke-miterlimit:4;stroke-dasharray:none;stroke-opacity:1"
       d="m 49.04396,991.19535 a 1.8134959,5.9101292 79.085399 0 0 -5.372807,2.2074 1.8134959,5.9101292 79.085399 0 0 5.569393,0.2175 1.8134959,5.9101292 79.085399 0 0 5.374501,-2.2083 1.8134959,5.9101292 79.085399 0 0 -5.571087,-0.2112 z"
       id="path9910"
       inkscape:connector-curvature="0"
       inkscape:transform-center-x="-29.824227"
       inkscape:transform-center-y="-46.60502" />
    <path
       inkscape:connector-curvature="0"
       id="path9926"
       d="m 51.821754,991.69125 a 1.0546224,1.4616871 10.642329 0 0 -0.746501,-1.202 1.0546224,1.4616871 10.642329 0 0 -0.680776,1.4958 1.0546224,1.4616871 10.642329 0 0 0.74663,1.2027 1.0546224,1.4616871 10.642329 0 0 0.680647,-1.4965 z"
       style="opacity:1;fill:#000000;fill-opacity:1;stroke:none;stroke-width:1;stroke-linecap:butt;stroke-linejoin:miter;stroke-miterlimit:4;stroke-dasharray:none;stroke-opacity:1"
       inkscape:transform-center-x="-31.789249"
       inkscape:transform-center-y="-47.176214" />
  </g>
</svg>
