<?xml version="1.0" encoding="UTF-8" standalone="no"?>
<!-- Created with Inkscape (http://www.inkscape.org/) -->

<svg
   xmlns:dc="http://purl.org/dc/elements/1.1/"
   xmlns:cc="http://creativecommons.org/ns#"
   xmlns:rdf="http://www.w3.org/1999/02/22-rdf-syntax-ns#"
   xmlns:svg="http://www.w3.org/2000/svg"
   xmlns="http://www.w3.org/2000/svg"
   xmlns:sodipodi="http://sodipodi.sourceforge.net/DTD/sodipodi-0.dtd"
   xmlns:inkscape="http://www.inkscape.org/namespaces/inkscape"
   width="120"
   height="80"
   viewBox="0 0 120 80.000001"
   id="svg5566"
   version="1.1"
   inkscape:version="0.91 r13725"
   sodipodi:docname="wing.svg"
   inkscape:export-filename="/home/thomas/glauron/wing.png"
   inkscape:export-xdpi="90"
   inkscape:export-ydpi="90">
  <defs
     id="defs5568" />
  <sodipodi:namedview
     id="base"
     pagecolor="#ffffff"
     bordercolor="#666666"
     borderopacity="1.0"
     inkscape:pageopacity="0.0"
     inkscape:pageshadow="2"
     inkscape:zoom="7.7251416"
     inkscape:cx="78.914989"
     inkscape:cy="38.442002"
     inkscape:document-units="px"
     inkscape:current-layer="layer1"
     showgrid="true"
     units="px"
     inkscape:snap-global="true"
     inkscape:snap-bbox="true"
     inkscape:bbox-paths="true"
     inkscape:bbox-nodes="true"
     inkscape:object-nodes="true"
     inkscape:window-width="1920"
     inkscape:window-height="1181"
     inkscape:window-x="0"
     inkscape:window-y="19"
     inkscape:window-maximized="0">
    <inkscape:grid
       type="xygrid"
       id="grid6114"
       spacingx="2"
       spacingy="2" />
  </sodipodi:namedview>
  <metadata
     id="metadata5571">
    <rdf:RDF>
      <cc:Work
         rdf:about="">
        <dc:format>image/svg+xml</dc:format>
        <dc:type
           rdf:resource="http://purl.org/dc/dcmitype/StillImage" />
        <dc:title></dc:title>
      </cc:Work>
    </rdf:RDF>
  </metadata>
  <g
     inkscape:label="Layer 1"
     inkscape:groupmode="layer"
     id="layer1"
     transform="translate(0,-972.36218)">
    <path
       style="display:inline;fill:#000000;fill-rule:evenodd;stroke:none;stroke-width:1px;stroke-linecap:butt;stroke-linejoin:miter;stroke-opacity:1"
       d="m 7.03372,978.93182 c -0.93762,-0.082 -1.60329,-0.057 -2.33536,0.3344 -0.73252,0.3923 0.66796,-1.755 2.25706,-1.9918 1.58908,-0.2369 0.0778,1.6574 0.0778,1.6574 z"
       id="path5500"
       inkscape:connector-curvature="0"
       inkscape:transform-center-x="33.166114"
       inkscape:transform-center-y="-74.078277" />
    <path
       style="display:inline;opacity:1;fill:#000000;fill-opacity:1;stroke:none;stroke-width:2;stroke-linecap:square;stroke-linejoin:round;stroke-miterlimit:4;stroke-dasharray:none;stroke-opacity:0.50196078"
       d="m 34.51312,1052.3622 9.48688,0 c 0.4974,-8.4114 1.12532,-17.0511 2.56736,-27.1157 2.3056,-8.1576 6.58709,-17.852 11.00604,-27.65328 -7.97812,-5.8829 -16.4427,-11.1173 -25.13611,-16.0466 -8.2508,-1.9836 -16.31412,-3.2172 -24.32767,-4.2519 0.44286,0.2699 -0.23663,1.7085 0.20096,1.9835 9.58075,6.0217 18.37806,11.9938 -3.71692,15.4647 0.51002,0.1126 -0.0677,1.4203 0.43458,1.5109 12.89209,2.3249 22.00175,5.20968 2.8848,17.20468 0.53441,0.1008 0.52916,1.3227 1.05057,1.2215 12.17102,-2.3612 21.70333,-0.8018 8.00122,13.2793 0.55616,0.1516 1.02898,1.1342 1.57228,1.1808 19.76835,1.6949 19.96863,19.3524 15.97601,23.2221 z"
       id="path5498"
       inkscape:connector-curvature="0"
       sodipodi:nodetypes="ccccccscscscsc"
       inkscape:transform-center-x="8.1730302"
       inkscape:transform-center-y="-37.533746" />
    <ellipse
       style="display:inline;opacity:1;fill:#000000;fill-opacity:1;stroke:none;stroke-width:2;stroke-linecap:square;stroke-linejoin:round;stroke-miterlimit:4;stroke-dasharray:none;stroke-opacity:0.50196078"
       id="path5529"
       cx="7.7519827"
       cy="978.24585"
       rx="1.0146406"
       ry="1.1573244"
       inkscape:transform-center-x="31.504578"
       inkscape:transform-center-y="-74.116369" />
    <path
       inkscape:connector-curvature="0"
       id="path5531"
       d="m 4.08755,996.31522 c -1.01142,0 -1.72174,0.089 -2.46888,0.5762 -0.74753005,0.4885 0.55105,-1.9411 2.23014,-2.3433 1.67905,-0.4021 0.23819,1.7671 0.23819,1.7671 z"
       style="display:inline;fill:#000000;fill-rule:evenodd;stroke:none;stroke-width:1px;stroke-linecap:butt;stroke-linejoin:miter;stroke-opacity:1"
       inkscape:transform-center-x="36.224264"
       inkscape:transform-center-y="-56.635007" />
    <ellipse
       ry="0.98412484"
       rx="0.94029611"
       cy="992.76282"
       cx="-89.760162"
       id="ellipse5533"
       style="display:inline;opacity:1;fill:#000000;fill-opacity:1;stroke:none;stroke-width:2;stroke-linecap:square;stroke-linejoin:round;stroke-miterlimit:4;stroke-dasharray:none;stroke-opacity:0.50196078"
       transform="matrix(0.99681461,-0.07975352,0.09485086,0.99549149,0,0)"
       inkscape:transform-center-x="34.566394"
       inkscape:transform-center-y="-56.916683" />
    <path
       style="display:inline;fill:#000000;fill-rule:evenodd;stroke:none;stroke-width:1px;stroke-linecap:butt;stroke-linejoin:miter;stroke-opacity:1"
       d="m 8.00279,1015.0535 c -0.77415,0.3191 -1.28969,0.6115 -1.70788,1.22 -0.41805,0.6096 -0.19068,-1.6596 0.96765,-2.4971 1.15825,-0.8376 0.7398,1.2773 0.7398,1.2773 z"
       id="path5535"
       inkscape:connector-curvature="0"
       inkscape:transform-center-x="32.168261"
       inkscape:transform-center-y="-37.384033" />
    <ellipse
       transform="matrix(0.88788401,-0.46006738,0.46006738,0.88788401,0,0)"
       style="display:inline;opacity:1;fill:#000000;fill-opacity:1;stroke:none;stroke-width:2;stroke-linecap:square;stroke-linejoin:round;stroke-miterlimit:4;stroke-dasharray:none;stroke-opacity:0.50196078"
       id="ellipse5537"
       cx="-459.32785"
       cy="904.25787"
       rx="0.77892023"
       ry="0.88845587"
       inkscape:transform-center-x="31.066884"
       inkscape:transform-center-y="-38.164396" />
    <path
       inkscape:connector-curvature="0"
       id="path5539"
       d="m 17.48537,1029.4477 c -0.59209,0.5069 -0.96322,0.9152 -1.15647,1.5748 -0.1928,0.6605 -0.65037,-1.4126 0.13108,-2.4896 0.78136,-1.077 1.02509,0.915 1.02509,0.915 z"
       style="display:inline;fill:#000000;fill-rule:evenodd;stroke:none;stroke-width:1px;stroke-linecap:butt;stroke-linejoin:miter;stroke-opacity:1"
       inkscape:transform-center-x="22.504083"
       inkscape:transform-center-y="-22.68057" />
    <ellipse
       ry="0.82705855"
       rx="0.72509247"
       cy="732.64954"
       cx="-722.23303"
       id="ellipse5541"
       style="display:inline;opacity:1;fill:#000000;fill-opacity:1;stroke:none;stroke-width:2;stroke-linecap:square;stroke-linejoin:round;stroke-miterlimit:4;stroke-dasharray:none;stroke-opacity:0.50196078"
       transform="matrix(0.70017434,-0.71397191,0.71397191,0.70017434,0,0)"
       inkscape:transform-center-x="21.854443"
       inkscape:transform-center-y="-23.725695" />
    <ellipse
       style="display:inline;opacity:1;fill:#000000;fill-opacity:1;stroke:none;stroke-width:2;stroke-linecap:square;stroke-linejoin:round;stroke-miterlimit:4;stroke-dasharray:none;stroke-opacity:0.50196078"
       id="path5543"
       cx="306.73773"
       cy="933.61365"
       rx="1.7756211"
       ry="0.9829331"
       transform="matrix(0.95967339,0.2811174,-0.2811174,0.95967339,0,0)"
       inkscape:transform-center-x="7.3434924"
       inkscape:transform-center-y="-70.168814" />
    <ellipse
       transform="matrix(0.99528521,-0.0969915,0.0969915,0.99528521,0,0)"
       ry="0.9829331"
       rx="1.7756211"
       cy="998.7926"
       cx="-40.866093"
       id="ellipse5545"
       style="display:inline;opacity:1;fill:#000000;fill-opacity:1;stroke:none;stroke-width:2;stroke-linecap:square;stroke-linejoin:round;stroke-miterlimit:4;stroke-dasharray:none;stroke-opacity:0.50196078"
       inkscape:transform-center-x="-16.944432"
       inkscape:transform-center-y="-54.315026" />
    <path
       style="opacity:1;fill:#000000;fill-opacity:1;stroke:none;stroke-width:2;stroke-linecap:square;stroke-linejoin:round;stroke-miterlimit:4;stroke-dasharray:none;stroke-opacity:0.50196078"
       d="m 57.162471,997.89994 c 0.956211,-3.5953 -0.578524,-9.50772 -2.837528,-10.66362 0.499142,1.39159 1.798483,4.30421 0.274599,9.06179 z"
       id="path6377"
       inkscape:connector-curvature="0"
       sodipodi:nodetypes="cccc" />
    <path
       inkscape:transform-center-y="74.078321"
       inkscape:transform-center-x="33.166114"
       inkscape:connector-curvature="0"
       id="path4774"
       d="m 67.033715,1045.7926 c -0.93762,0.082 -1.60329,0.057 -2.33536,-0.3344 -0.73252,-0.3923 0.66796,1.755 2.25706,1.9918 1.58908,0.2369 0.0778,-1.6574 0.0778,-1.6574 z"
       style="display:inline;fill:#000000;fill-rule:evenodd;stroke:none;stroke-width:1px;stroke-linecap:butt;stroke-linejoin:miter;stroke-opacity:1" />
    <path
       inkscape:transform-center-y="37.53377"
       inkscape:transform-center-x="8.1730302"
       sodipodi:nodetypes="ccccccscscscsc"
       inkscape:connector-curvature="0"
       id="path4776"
       d="m 94.513115,972.36218 9.486885,0 c 0.4974,8.4114 1.12532,17.0511 2.56736,27.11571 2.3056,8.15761 6.58709,17.85201 11.00604,27.65331 -7.97812,5.8829 -16.4427,11.1173 -25.136115,16.0466 -8.2508,1.9836 -16.31412,3.2172 -24.32767,4.2519 0.44286,-0.2699 -0.23663,-1.7085 0.20096,-1.9835 9.58075,-6.0217 18.37806,-11.9938 -3.71692,-15.4647 0.51002,-0.1126 -0.0677,-1.4203 0.43458,-1.5109 12.89209,-2.3249 22.00175,-5.2097 2.8848,-17.2047 0.53441,-0.1008 0.52916,-1.3227 1.05057,-1.2215 12.17102,2.3612 21.70333,0.8018 8.00122,-13.27931 0.55616,-0.1516 1.02898,-1.1342 1.57228,-1.1808 19.768351,-1.69491 19.968631,-19.35241 15.97601,-23.22211 z"
       style="display:inline;opacity:1;fill:#000000;fill-opacity:1;stroke:none;stroke-width:2;stroke-linecap:square;stroke-linejoin:round;stroke-miterlimit:4;stroke-dasharray:none;stroke-opacity:0.50196078" />
    <ellipse
       inkscape:transform-center-y="74.116327"
       inkscape:transform-center-x="31.504578"
       ry="1.1573244"
       rx="1.0146406"
       cy="-1046.4784"
       cx="67.751976"
       id="ellipse4778"
       style="display:inline;opacity:1;fill:#000000;fill-opacity:1;stroke:none;stroke-width:2;stroke-linecap:square;stroke-linejoin:round;stroke-miterlimit:4;stroke-dasharray:none;stroke-opacity:0.50196078"
       transform="scale(1,-1)" />
    <path
       inkscape:transform-center-y="56.635051"
       inkscape:transform-center-x="36.224264"
       style="display:inline;fill:#000000;fill-rule:evenodd;stroke:none;stroke-width:1px;stroke-linecap:butt;stroke-linejoin:miter;stroke-opacity:1"
       d="m 64.087545,1028.4092 c -1.01142,0 -1.72174,-0.089 -2.46888,-0.5762 -0.74753,-0.4885 0.55105,1.9411 2.23014,2.3433 1.67905,0.4021 0.23819,-1.7671 0.23819,-1.7671 z"
       id="path4780"
       inkscape:connector-curvature="0" />
    <ellipse
       inkscape:transform-center-y="56.916635"
       inkscape:transform-center-x="34.566383"
       transform="matrix(0.99681461,0.07975352,0.09485086,-0.99549149,0,0)"
       style="display:inline;opacity:1;fill:#000000;fill-opacity:1;stroke:none;stroke-width:2;stroke-linecap:square;stroke-linejoin:round;stroke-miterlimit:4;stroke-dasharray:none;stroke-opacity:0.50196078"
       id="ellipse4782"
       cx="162.04509"
       cy="-1020.958"
       rx="0.94029611"
       ry="0.98412484" />
    <path
       inkscape:transform-center-y="37.384047"
       inkscape:transform-center-x="32.168261"
       inkscape:connector-curvature="0"
       id="path4784"
       d="m 68.002785,1009.6709 c -0.77415,-0.3191 -1.28969,-0.6115 -1.70788,-1.22 -0.41805,-0.6096 -0.19068,1.6596 0.96765,2.4971 1.15825,0.8376 0.7398,-1.2773 0.7398,-1.2773 z"
       style="display:inline;fill:#000000;fill-rule:evenodd;stroke:none;stroke-width:1px;stroke-linecap:butt;stroke-linejoin:miter;stroke-opacity:1" />
    <ellipse
       inkscape:transform-center-y="38.164371"
       inkscape:transform-center-x="31.06689"
       ry="0.88845587"
       rx="0.77892023"
       cy="-865.85846"
       cx="525.45483"
       id="ellipse4786"
       style="display:inline;opacity:1;fill:#000000;fill-opacity:1;stroke:none;stroke-width:2;stroke-linecap:square;stroke-linejoin:round;stroke-miterlimit:4;stroke-dasharray:none;stroke-opacity:0.50196078"
       transform="matrix(0.88788401,0.46006738,0.46006738,-0.88788401,0,0)" />
    <path
       inkscape:transform-center-y="22.680579"
       inkscape:transform-center-x="22.504083"
       style="display:inline;fill:#000000;fill-rule:evenodd;stroke:none;stroke-width:1px;stroke-linecap:butt;stroke-linejoin:miter;stroke-opacity:1"
       d="m 77.485365,995.27669 c -0.59209,-0.50691 -0.96322,-0.91521 -1.15647,-1.57481 -0.1928,-0.6605 -0.65037,1.4126 0.13108,2.48961 0.78136,1.077 1.02509,-0.915 1.02509,-0.915 z"
       id="path4788"
       inkscape:connector-curvature="0" />
    <ellipse
       inkscape:transform-center-y="23.725707"
       inkscape:transform-center-x="21.854418"
       transform="matrix(0.70017434,0.71397191,0.71397191,-0.70017434,0,0)"
       style="display:inline;opacity:1;fill:#000000;fill-opacity:1;stroke:none;stroke-width:2;stroke-linecap:square;stroke-linejoin:round;stroke-miterlimit:4;stroke-dasharray:none;stroke-opacity:0.50196078"
       id="ellipse4790"
       cx="765.37384"
       cy="-642.17224"
       rx="0.72509247"
       ry="0.82705855" />
    <ellipse
       inkscape:transform-center-y="70.168777"
       inkscape:transform-center-x="7.3435095"
       transform="matrix(0.95967339,-0.2811174,-0.2811174,-0.95967339,0,0)"
       ry="0.9829331"
       rx="1.7756211"
       cy="-1026.3275"
       cx="-204.86711"
       id="ellipse4792"
       style="display:inline;opacity:1;fill:#000000;fill-opacity:1;stroke:none;stroke-width:2;stroke-linecap:square;stroke-linejoin:round;stroke-miterlimit:4;stroke-dasharray:none;stroke-opacity:0.50196078" />
    <ellipse
       inkscape:transform-center-y="54.314999"
       inkscape:transform-center-x="-16.944433"
       style="display:inline;opacity:1;fill:#000000;fill-opacity:1;stroke:none;stroke-width:2;stroke-linecap:square;stroke-linejoin:round;stroke-miterlimit:4;stroke-dasharray:none;stroke-opacity:0.50196078"
       id="ellipse4794"
       cx="215.23207"
       cy="-1010.5661"
       rx="1.7756211"
       ry="0.9829331"
       transform="matrix(0.99528521,0.0969915,0.0969915,-0.99528521,0,0)" />
    <path
       sodipodi:nodetypes="cccc"
       inkscape:connector-curvature="0"
       id="path4796"
       d="m 117.16247,1026.8244 c 0.95621,3.5953 -0.57852,9.5078 -2.83753,10.6637 0.49915,-1.3916 1.79849,-4.3043 0.2746,-9.0618 z"
       style="opacity:1;fill:#000000;fill-opacity:1;stroke:none;stroke-width:2;stroke-linecap:square;stroke-linejoin:round;stroke-miterlimit:4;stroke-dasharray:none;stroke-opacity:0.50196078" />
  </g>
</svg>
